<?xml version="1.0" encoding="utf-8"?>
<!-- Generator: Adobe Illustrator 19.0.0, SVG Export Plug-In . SVG Version: 6.00 Build 0)  -->
<svg version="1.1" id="Camada_1" xmlns="http://www.w3.org/2000/svg" xmlns:xlink="http://www.w3.org/1999/xlink" x="0px" y="0px"
	 viewBox="-54 181 523 448" style="enable-background:new -54 181 523 448;" xml:space="preserve">
<style type="text/css">
	.st0{opacity:0.95;fill:none;enable-background:new    ;}
	.st1{opacity:0.95;fill:#FFFFFF;enable-background:new    ;}
	.st2{opacity:0.946;fill:#FFFFFF;enable-background:new    ;}
</style>
<path class="st0" d="M19.5,341.5c11,0,22,0,33,0c0,22.3,0,44.7,0,67c-11,0-22,0-33,0C19.5,386.2,19.5,363.8,19.5,341.5z"/>
<path class="st0" d="M104.5,341.5c11,0,22,0,33,0c0,22.3,0,44.7,0,67c-11,0-22,0-33,0C104.5,386.2,104.5,363.8,104.5,341.5z"/>
<path class="st0" d="M189.5,341.5c11.3,0,22.7,0,34,0c0,22.3,0,44.7,0,67c-11.3,0-22.7,0-34,0C189.5,386.2,189.5,363.8,189.5,341.5z
	"/>
<path class="st0" d="M275.5,341.5c11,0,22,0,33,0c0,22.3,0,44.7,0,67c-11,0-22,0-33,0C275.5,386.2,275.5,363.8,275.5,341.5z"/>
<path class="st0" d="M360.5,341.5c11,0,22,0,33,0c0,22.3,0,44.7,0,67c-11,0-22,0-33,0C360.5,386.2,360.5,363.8,360.5,341.5z"/>
<path class="st1" d="M462.5,336.5c0-14,0-28,0-42c-1.1-2-2.8-3.5-5-4.5c-167.3-0.7-334.7-0.7-502,0c-2.2,1-3.9,2.5-5,4.5
	c0,14,0,28,0,42c1.4,2.2,3.4,3.7,6,4.5c10,1.6,12.3,6.6,7,15c-5.2,0.6-9.6,2.8-13,6.5c0,37,0,74,0,111c4.8,4.3,10.4,5.9,17,5
	c-0.2,6.7,0,13.3,0.5,20c0.8,2.2,2.3,3.7,4.5,4.5c53.7,0.7,107.3,0.7,161,0c1.8-1.2,3.3-2.7,4.5-4.5c0.5-6.7,0.7-13.3,0.5-20
	c5.3,0,10.7,0,16,0c-0.2,5.7,0,11.3,0.5,17c0.3,3.6,2.1,6.1,5.5,7.5c93.3,0.7,186.7,0.7,280,0c2.2-0.8,3.7-2.3,4.5-4.5
	c0.5-6.7,0.7-13.3,0.5-20c6.6,0.9,12.2-0.7,17-5c0-37,0-74,0-111c-1.4-2.2-3.4-3.7-6-4.5c-10.4-1.3-12.7-6.3-7-15
	C454.8,342.4,459.1,340.2,462.5,336.5z M120.5,485.5c-45,0-90,0-135,0c0-2.3,0-4.7,0-7c45,0,90,0,135,0
	C120.5,480.8,120.5,483.2,120.5,485.5z M427.5,485.5c-85,0-170,0-255,0c0-2.3,0-4.7,0-7c85,0,170,0,255,0
	C427.5,480.8,427.5,483.2,427.5,485.5z M444.5,460.5c-158.7,0-317.3,0-476,0c-0.3-29,0-58,1-87c9.8-5,15.2-13,16-24
	c-0.9-11.1-6.2-19.1-16-24c-1-6-1.3-12-1-18c158.7,0,317.3,0,476,0c0.3,6,0,12-1,18c-16.2,10-19.7,23.3-10.5,40
	c2.8,3.6,6.3,6.3,10.5,8C444.5,402.5,444.8,431.5,444.5,460.5z"/>
<path class="st1" d="M69,327.5c-1.2-1.5-2.7-2.7-4.5-3.5c-19-0.5-38-0.7-57-0.5c-2.3,1.1-4.1,2.8-5.5,5c-1,31.8-0.7,63.4,1,95
	c0.9,1.2,2.1,2,3.5,2.5c19.7,0.7,39.3,0.7,59,0c2.2-1.2,3.7-3.1,4.5-5.5C71,389.4,70.7,358.4,69,327.5z M52.5,408.5c-11,0-22,0-33,0
	c0-22.3,0-44.7,0-67c11,0,22,0,33,0C52.5,363.8,52.5,386.2,52.5,408.5z"/>
<path class="st1" d="M155,328.5c-1.2-2.2-3.1-3.7-5.5-4.5c-19-0.5-38-0.7-57-0.5c-2.3,1.5-4.1,3.5-5.5,6c-0.7,30.3-0.7,60.7,0,91
	c0.8,2.4,2.3,4.3,4.5,5.5c20.4,1,40.8,0.6,61-1c1.2-0.9,2-2.1,2.5-3.5C155.7,390.5,155.7,359.5,155,328.5z M137.5,408.5
	c-11,0-22,0-33,0c0-22.3,0-44.7,0-67c11,0,22,0,33,0C137.5,363.8,137.5,386.2,137.5,408.5z"/>
<path class="st2" d="M241,331.5c-0.5-3.5-2.3-6-5.5-7.5c-19.3-0.5-38.7-0.7-58-0.5c-3,1.7-4.9,4.4-5.5,8c-1,30.4-0.6,60.7,1,91
	c1.2,1.2,2.3,2.3,3.5,3.5c20,0.7,40,0.7,60,0c2.8-1.8,4.3-4.3,4.5-7.5C241.7,389.5,241.7,360.5,241,331.5z M223.5,408.5
	c-11.3,0-22.7,0-34,0c0-22.3,0-44.7,0-67c11.3,0,22.7,0,34,0C223.5,363.8,223.5,386.2,223.5,408.5z"/>
<path class="st1" d="M325,327.5c-1.2-1.5-2.7-2.7-4.5-3.5c-19-0.5-38-0.7-57-0.5c-2.3,1.1-4.1,2.8-5.5,5c-1,31.8-0.7,63.4,1,95
	c0.9,1.2,2.1,2,3.5,2.5c19.7,0.7,39.3,0.7,59,0c2.2-1.2,3.7-3.1,4.5-5.5C327,389.4,326.7,358.4,325,327.5z M308.5,408.5
	c-11,0-22,0-33,0c0-22.3,0-44.7,0-67c11,0,22,0,33,0C308.5,363.8,308.5,386.2,308.5,408.5z"/>
<path class="st1" d="M411,328.5c-1.2-2.2-3.1-3.7-5.5-4.5c-19-0.5-38-0.7-57-0.5c-2.3,1.5-4.1,3.5-5.5,6c-0.7,30.3-0.7,60.7,0,91
	c0.8,2.4,2.3,4.3,4.5,5.5c20.4,1,40.8,0.6,61-1c1.2-0.9,2-2.1,2.5-3.5C411.7,390.5,411.7,359.5,411,328.5z M393.5,408.5
	c-11,0-22,0-33,0c0-22.3,0-44.7,0-67c11,0,22,0,33,0C393.5,363.8,393.5,386.2,393.5,408.5z"/>
</svg>
