<?xml version="1.0" encoding="utf-8"?>
<!-- Generator: Adobe Illustrator 19.0.0, SVG Export Plug-In . SVG Version: 6.00 Build 0)  -->
<svg version="1.1" id="Camada_1" xmlns="http://www.w3.org/2000/svg" xmlns:xlink="http://www.w3.org/1999/xlink" x="0px" y="0px"
	 viewBox="-49 141 512 512" style="enable-background:new -49 141 512 512;" xml:space="preserve">
<style type="text/css">
	.st0{opacity:0.994;fill:none;enable-background:new    ;}
	.st1{opacity:0.994;fill:#FFFFFF;enable-background:new    ;}
	.st2{opacity:0.994;fill:#1A4895;enable-background:new    ;}
	.st3{opacity:0.932;fill:#FFFFFF;enable-background:new    ;}
	.st4{opacity:0.928;fill:none;enable-background:new    ;}
	.st5{opacity:0.94;fill:#FFFFFF;enable-background:new    ;}
</style>
<path class="st0" d="M-17.5,172.5c8,0,16,0,24,0c0,5.3,0,10.7,0,16c-8,0-16,0-24,0C-17.5,183.2-17.5,177.8-17.5,172.5z"/>
<path class="st1" d="M446.5,356.5c-0.2-65.3-0.3-130.7-0.5-196c-0.4-0.9-0.9-1.7-1.5-2.5c-157.9-1.5-315.9-2-474-1.5
	c-1.6,0.8-2.8,2.1-3.5,4c-0.7,130.7-0.7,261.3,0,392c0.4,0.9,0.9,1.8,1.5,2.5c30.2,1.3,60.6,2,91,2c6.4,24.1,12.6,48.2,18.5,72.5
	c0.4,3,1.9,5.2,4.5,6.5c82.7,0.7,165.3,0.7,248,0c0.9-0.4,1.8-0.9,2.5-1.5c7.1-25.8,13.9-51.6,20.5-77.5c29.7-0.3,59.3-0.7,89-1
	c0.9-0.4,1.8-0.9,2.5-1.5C446.2,488.6,446.7,422.6,446.5,356.5z M390.5,540.5c-122.7,0-245.3,0-368,0c0-122.7,0-245.3,0-368
	c122.7,0,245.3,0,368,0C390.5,295.2,390.5,417.8,390.5,540.5z"/>
<path class="st0" d="M406.5,172.5c8,0,16,0,24,0c0,5.3,0,10.7,0,16c-8,0-16,0-24,0C406.5,183.2,406.5,177.8,406.5,172.5z"/>
<path class="st2" d="M-17.5,204.5c8,0,16,0,24,0c0,5.3,0,10.7,0,16c-8,0-16,0-24,0C-17.5,215.2-17.5,209.8-17.5,204.5z"/>
<path class="st0" d="M205.5,204.5c65.5,3.1,112.3,34.1,140.5,93c21.5,57,13.5,109.3-24,157c-39.3,43.1-87.8,60-145.5,50.5
	C123.2,492.6,86,461.1,65,410.5c-21.3-65.8-6.8-122.3,43.5-169.5C136.7,217.9,169.1,205.7,205.5,204.5z"/>
<path class="st2" d="M406.5,204.5c8,0,16,0,24,0c0,5.3,0,10.7,0,16c-8,0-16,0-24,0C406.5,215.2,406.5,209.8,406.5,204.5z"/>
<path class="st0" d="M59.5,205.5c9.3-0.1,12,4,8,12.5c-8.5,3.3-12.4,0.5-11.5-8.5C56.7,207.6,57.9,206.3,59.5,205.5z"/>
<path class="st0" d="M347.5,205.5c9.4-0.1,12,4,8,12.5c-8.5,3.3-12.4,0.5-11.5-8.5C344.7,207.6,345.9,206.3,347.5,205.5z"/>
<path class="st2" d="M-17.5,236.5c8,0,16,0,24,0c0,5.3,0,10.7,0,16c-8,0-16,0-24,0C-17.5,247.2-17.5,241.8-17.5,236.5z"/>
<path class="st2" d="M406.5,236.5c8,0,16,0,24,0c0,5.3,0,10.7,0,16c-8,0-16,0-24,0C406.5,247.2,406.5,241.8,406.5,236.5z"/>
<path class="st0" d="M191.5,237.5c3.4-0.3,6.7,0,10,1c12.3,21.8,16.6,45.2,13,70c-4,0-8,0-12,0c-6.2-25.3-19.2-46.5-39-63.5
	C172.8,241.8,182.1,239.3,191.5,237.5z"/>
<path class="st0" d="M254.5,247.5c11.5,5,22,11.7,31.5,20c-3,15.7-9.7,29.7-20,42c-6.4,6.7-13,13-20,19c-2.3-3.1-4.8-6.1-7.5-9
	C251.1,297.1,256.4,273.1,254.5,247.5z"/>
<path class="st2" d="M-17.5,268.5c8,0,16,0,24,0c0,5.3,0,10.7,0,16c-8,0-16,0-24,0C-17.5,279.2-17.5,273.8-17.5,268.5z"/>
<path class="st2" d="M406.5,268.5c8,0,16,0,24,0c0,5.3,0,10.7,0,16c-8,0-16,0-24,0C406.5,279.2,406.5,273.8,406.5,268.5z"/>
<path class="st0" d="M117.5,276.5c25.2,6,45.6,19.5,61,40.5c-3.1,2.3-6.1,4.8-9,7.5c-22.4-12.3-46.4-17.9-72-17
	C102.9,296.3,109.6,286,117.5,276.5z"/>
<path class="st2" d="M-17.5,300.5c8,0,16,0,24,0c0,5.3,0,10.7,0,16c-8,0-16,0-24,0C-17.5,311.2-17.5,305.8-17.5,300.5z"/>
<path class="st2" d="M406.5,300.5c8,0,16,0,24,0c0,5.3,0,10.7,0,16c-8,0-16,0-24,0C406.5,311.2,406.5,305.8,406.5,300.5z"/>
<path class="st0" d="M317.5,313.5c5.4,12.1,7.7,24.7,7,38c-21.8,12.3-45.2,16.6-70,13c0-4,0-8,0-12
	C279.8,346.4,300.8,333.4,317.5,313.5z"/>
<path class="st0" d="M205.5,324.5c23.2,2.7,33.7,15.7,31.5,39c-6.1,18.6-18.9,26.5-38.5,23.5c-17.9-6.6-25.4-19.5-22.5-38.5
	C180.8,334.2,190.7,326.2,205.5,324.5z"/>
<path class="st2" d="M-17.5,332.5c8,0,16,0,24,0c0,5.3,0,10.7,0,16c-8,0-16,0-24,0C-17.5,343.2-17.5,337.8-17.5,332.5z"/>
<path class="st2" d="M406.5,332.5c8,0,16,0,24,0c0,5.3,0,10.7,0,16c-8,0-16,0-24,0C406.5,343.2,406.5,337.8,406.5,332.5z"/>
<path class="st0" d="M128.5,347.5c10-0.2,20,0.1,30,1c0,4,0,8,0,12c-25.3,6.2-46.5,19.2-63.5,39c-5-12.3-7.1-24.9-6.5-38
	C101.2,354.6,114.5,349.9,128.5,347.5z"/>
<path class="st2" d="M-17.5,364.5c8,0,16,0,24,0c0,5.3,0,10.7,0,16c-8,0-16,0-24,0C-17.5,375.2-17.5,369.8-17.5,364.5z"/>
<path class="st2" d="M406.5,364.5c8,0,16,0,24,0c0,5.3,0,10.7,0,16c-8,0-16,0-24,0C406.5,375.2,406.5,369.8,406.5,364.5z"/>
<path class="st0" d="M166.5,384.5c2.6,3,5.3,6,8,9c-12.3,22.4-17.9,46.4-17,72c-11.1-5.3-21.3-12-30.5-20c2.4-12.2,7.1-23.5,14-34
	C148.7,401.7,157.2,392.7,166.5,384.5z"/>
<path class="st0" d="M242.5,388.5c22.8,12.1,47.1,17.8,73,17c-5.3,11.1-12,21.3-20,30.5c-15.7-3-29.7-9.7-42-20
	c-6.7-6.4-13-13-19-20C237.7,394,240.3,391.5,242.5,388.5z"/>
<path class="st2" d="M-17.5,396.5c8,0,16,0,24,0c0,5.3,0,10.7,0,16c-8,0-16,0-24,0C-17.5,407.2-17.5,401.8-17.5,396.5z"/>
<path class="st2" d="M406.5,396.5c8,0,16,0,24,0c0,5.3,0,10.7,0,16c-8,0-16,0-24,0C406.5,407.2,406.5,401.8,406.5,396.5z"/>
<path class="st0" d="M198.5,404.5c4,0,8,0,12,0c6.2,25.3,19.2,46.5,39,63.5c-12.3,5-24.9,7.1-38,6.5
	C199.2,452.7,194.9,429.3,198.5,404.5z"/>
<path class="st2" d="M-17.5,428.5c8,0,16,0,24,0c0,5.3,0,10.7,0,16c-8,0-16,0-24,0C-17.5,439.2-17.5,433.8-17.5,428.5z"/>
<path class="st2" d="M406.5,428.5c8,0,16,0,24,0c0,5.3,0,10.7,0,16c-8,0-16,0-24,0C406.5,439.2,406.5,433.8,406.5,428.5z"/>
<path class="st2" d="M-17.5,460.5c8,0,16,0,24,0c0,5.3,0,10.7,0,16c-8,0-16,0-24,0C-17.5,471.2-17.5,465.8-17.5,460.5z"/>
<path class="st2" d="M406.5,460.5c8,0,16,0,24,0c0,5.3,0,10.7,0,16c-8,0-16,0-24,0C406.5,471.2,406.5,465.8,406.5,460.5z"/>
<path class="st2" d="M-17.5,492.5c8,0,16,0,24,0c0,5.3,0,10.7,0,16c-8,0-16,0-24,0C-17.5,503.2-17.5,497.8-17.5,492.5z"/>
<path class="st2" d="M406.5,492.5c8,0,16,0,24,0c0,5.3,0,10.7,0,16c-8,0-16,0-24,0C406.5,503.2,406.5,497.8,406.5,492.5z"/>
<path class="st0" d="M59.5,493.5c9.3-0.1,12,4,8,12.5c-8.5,3.3-12.4,0.5-11.5-8.5C56.7,495.6,57.9,494.3,59.5,493.5z"/>
<path class="st0" d="M347.5,493.5c9.4-0.1,12,4,8,12.5c-8.5,3.3-12.4,0.5-11.5-8.5C344.7,495.6,345.9,494.3,347.5,493.5z"/>
<path class="st2" d="M-17.5,524.5c8,0,16,0,24,0c0,5.3,0,10.7,0,16c-8,0-16,0-24,0C-17.5,535.2-17.5,529.8-17.5,524.5z"/>
<path class="st2" d="M406.5,524.5c8,0,16,0,24,0c0,5.3,0,10.7,0,16c-8,0-16,0-24,0C406.5,535.2,406.5,529.8,406.5,524.5z"/>
<path class="st2" d="M77.5,556.5c4.9-0.3,9.8,0,14.5,1c3.5,15.4,7.6,30.6,12.5,45.5c13.6,1.5,27.2,2,41,1.5c-0.7,5.3-1.3,10.7-2,16
	c-16.7,0.2-33.3,0-50-0.5C87.8,598.9,82.4,577.8,77.5,556.5z"/>
<path class="st2" d="M109.5,556.5c64.7,0,129.3,0,194,0c-2.3,10.6-4.9,21.1-8,31.5c-10.3,0.5-20.7,0.7-31,0.5
	c-0.5-4.1-1.3-8.1-2.5-12c-0.5-1.8-1.7-3-3.5-3.5c-34.7-0.7-69.3-0.7-104,0c-1.8,0.5-3,1.7-3.5,3.5c-1.2,3.9-2,7.9-2.5,12
	c-10.3,0.2-20.7,0-31-0.5C114.4,577.6,111.8,567.1,109.5,556.5z"/>
<path class="st2" d="M321.5,556.5c4.7,0,9.3,0,14,0c-4.9,21.3-10.3,42.4-16,63.5c-16.7,0.5-33.3,0.7-50,0.5c-0.7-5.3-1.3-10.7-2-16
	c13.8,0.5,27.4,0,41-1.5C313.4,587.7,317.7,572.2,321.5,556.5z"/>
<path class="st2" d="M165.5,588.5c27.3,0,54.7,0,82,0c1.5,10.7,3.1,21.4,5,32c-30.7,0-61.3,0-92,0
	C162.4,609.9,164,599.2,165.5,588.5z"/>
<g>
	<path class="st3" d="M55.5,188.5c14.9-2.5,25,3.2,30.5,17c3,14.9-2.5,25-16.5,30.5c-14.9,3-25-2.5-30.5-16.5
		C36.1,204.5,41.6,194.2,55.5,188.5z M59.5,205.5c-1.6,0.8-2.8,2.1-3.5,4c-0.9,9,3,11.8,11.5,8.5C71.5,209.5,68.8,205.4,59.5,205.5z
		"/>
</g>
<g>
	<path class="st4" d="M188.5,188.5c72.6-4.1,127.8,24.5,165.5,86c22.4,42.9,26.7,87.5,13,134c-24.7,66.6-72.2,105.1-142.5,115.5
		c-72.6,4.6-127.8-23.9-165.5-85.5c-21.5-40.4-26.5-82.7-15-127c17.4-57.1,54.2-95.6,110.5-115.5
		C165.8,192.6,177.1,190.1,188.5,188.5z M205.5,204.5c-36.4,1.2-68.8,13.4-97,36.5C58.2,288.2,43.7,344.7,65,410.5
		c21,50.6,58.2,82.1,111.5,94.5c57.7,9.5,106.2-7.4,145.5-50.5c37.5-47.7,45.5-100,24-157C317.8,238.6,271,207.6,205.5,204.5z
		 M191.5,237.5c-9.4,1.8-18.7,4.3-28,7.5c19.8,17,32.8,38.2,39,63.5c4,0,8,0,12,0c3.6-24.8-0.7-48.2-13-70
		C198.2,237.5,194.9,237.2,191.5,237.5z M254.5,247.5c1.9,25.6-3.4,49.6-16,72c2.7,2.9,5.2,5.9,7.5,9c7-6,13.6-12.3,20-19
		c10.3-12.3,17-26.3,20-42C276.5,259.2,266,252.5,254.5,247.5z M117.5,276.5c-7.9,9.5-14.6,19.8-20,31c25.6-0.9,49.6,4.7,72,17
		c2.9-2.7,5.9-5.2,9-7.5C163.1,296,142.7,282.5,117.5,276.5z M317.5,313.5c-16.7,19.9-37.7,32.9-63,39c0,4,0,8,0,12
		c24.8,3.6,48.2-0.7,70-13C325.2,338.2,322.9,325.6,317.5,313.5z M205.5,324.5c-14.8,1.7-24.7,9.7-29.5,24
		c-2.9,19,4.6,31.9,22.5,38.5c19.6,3,32.4-4.9,38.5-23.5C239.2,340.2,228.7,327.2,205.5,324.5z M128.5,347.5c-14,2.4-27.3,7.1-40,14
		c-0.6,13.1,1.5,25.7,6.5,38c17-19.8,38.2-32.8,63.5-39c0-4,0-8,0-12C148.5,347.6,138.5,347.3,128.5,347.5z M166.5,384.5
		c-9.3,8.2-17.8,17.2-25.5,27c-6.9,10.5-11.6,21.8-14,34c9.2,8,19.4,14.7,30.5,20c-0.9-25.6,4.7-49.6,17-72
		C171.8,390.5,169.1,387.5,166.5,384.5z M242.5,388.5c-2.2,3-4.8,5.5-8,7.5c6,7,12.3,13.6,19,20c12.3,10.3,26.3,17,42,20
		c8-9.2,14.7-19.4,20-30.5C289.6,406.3,265.3,400.6,242.5,388.5z M198.5,404.5c-3.6,24.8,0.7,48.2,13,70c13.1,0.6,25.7-1.5,38-6.5
		c-19.8-17-32.8-38.2-39-63.5C206.5,404.5,202.5,404.5,198.5,404.5z"/>
</g>
<g>
	<path class="st3" d="M343.5,188.5c14.9-2.5,25,3.2,30.5,17c3,14.9-2.5,25-16.5,30.5c-14.9,3-25-2.5-30.5-16.5
		C324.1,204.5,329.6,194.2,343.5,188.5z M347.5,205.5c-1.6,0.8-2.8,2.1-3.5,4c-0.9,9,3,11.8,11.5,8.5
		C359.5,209.5,356.9,205.4,347.5,205.5z"/>
</g>
<g>
	<path class="st5" d="M275.5,325.5c15.8-8.4,28.5-20.2,38-35.5c4.3-2.1,8.4-1.9,12.5,0.5c12.7,22.2,17.7,45.8,15,71
		c-20,13.6-42.2,20.7-66.5,21.5c5.9,1.8,11.9,3.2,18,4c13.1,0.7,26.1,0.4,39-1c3.7,1.4,5.7,4,6,8c-6.3,23.6-18.3,43.6-36,60
		c-10.5,0-20.5-2.4-30-7c-12.3-5.8-23.6-13-34-21.5c8.2,16,20,28.7,35.5,38c2.1,4.3,1.9,8.4-0.5,12.5c-22.2,12.7-45.8,17.7-71,15
		c-13.6-20-20.7-42.2-21.5-66.5c-1.8,5.9-3.2,11.9-4,18c-0.7,13.1-0.4,26.1,1,39c-1.4,3.7-4,5.7-8,6c-23.6-6.3-43.6-18.3-60-36
		c0-10.5,2.4-20.5,7-30c5.8-12.3,13-23.6,21.5-34c-16,8.2-28.7,20-38,35.5c-4.3,2.1-8.4,1.9-12.5-0.5c-12.8-22.1-17.8-45.8-15-71
		c20-13.6,42.2-20.7,66.5-21.5c-5.6-1.8-11.2-3.1-17-4c-13.4-0.7-26.7-0.4-40,1c-3.7-1.4-5.7-4-6-8c6.3-23.6,18.3-43.6,36-60
		c17,1.1,32.7,6.5,47,16c5.7,4.2,11.4,8.3,17,12.5c-8.2-16-20-28.7-35.5-38c-2.1-4.3-1.9-8.4,0.5-12.5c22.2-12.7,45.8-17.7,71-15
		c13.6,20,20.7,42.2,21.5,66.5c1.8-5.9,3.2-11.9,4-18c0.7-13.1,0.3-26.1-1-39c1.4-3.7,4-5.7,8-6c23.6,6.3,43.6,18.3,60,36
		c0,10.5-2.4,20.5-7,30C291.2,303.8,284,315.1,275.5,325.5z M191.5,237.5c-9.4,1.8-18.7,4.3-28,7.5c19.8,17,32.8,38.2,39,63.5
		c4,0,8,0,12,0c3.6-24.8-0.7-48.2-13-70C198.2,237.5,194.9,237.2,191.5,237.5z M254.5,247.5c1.9,25.6-3.4,49.6-16,72
		c2.7,2.9,5.2,5.9,7.5,9c7-6,13.6-12.3,20-19c10.3-12.3,17-26.3,20-42C276.5,259.2,266,252.5,254.5,247.5z M117.5,276.5
		c-7.9,9.5-14.6,19.8-20,31c25.6-0.9,49.6,4.7,72,17c2.9-2.7,5.9-5.2,9-7.5C163.1,296,142.7,282.5,117.5,276.5z M317.5,313.5
		c-16.7,19.9-37.7,32.9-63,39c0,4,0,8,0,12c24.8,3.6,48.2-0.7,70-13C325.2,338.2,322.9,325.6,317.5,313.5z M205.5,324.5
		c-14.8,1.7-24.7,9.7-29.5,24c-2.9,19,4.6,31.9,22.5,38.5c19.6,3,32.4-4.9,38.5-23.5C239.2,340.2,228.7,327.2,205.5,324.5z
		 M128.5,347.5c-14,2.4-27.3,7.1-40,14c-0.6,13.1,1.5,25.7,6.5,38c17-19.8,38.2-32.8,63.5-39c0-4,0-8,0-12
		C148.5,347.6,138.5,347.3,128.5,347.5z M166.5,384.5c-9.3,8.2-17.8,17.2-25.5,27c-6.9,10.5-11.6,21.8-14,34
		c9.2,8,19.4,14.7,30.5,20c-0.9-25.6,4.7-49.6,17-72C171.8,390.5,169.1,387.5,166.5,384.5z M242.5,388.5c-2.2,3-4.8,5.5-8,7.5
		c6,7,12.3,13.6,19,20c12.3,10.3,26.3,17,42,20c8-9.2,14.7-19.4,20-30.5C289.6,406.3,265.3,400.6,242.5,388.5z M198.5,404.5
		c-3.6,24.8,0.7,48.2,13,70c13.1,0.6,25.7-1.5,38-6.5c-19.8-17-32.8-38.2-39-63.5C206.5,404.5,202.5,404.5,198.5,404.5z"/>
</g>
<g>
	<path class="st3" d="M55.5,476.5c14.9-2.5,25,3.2,30.5,17c3,14.9-2.5,25-16.5,30.5c-14.9,3-25-2.5-30.5-16.5
		C36.1,492.5,41.6,482.2,55.5,476.5z M59.5,493.5c-1.6,0.8-2.8,2.1-3.5,4c-0.9,9,3,11.8,11.5,8.5C71.5,497.5,68.8,493.4,59.5,493.5z
		"/>
</g>
<g>
	<path class="st3" d="M343.5,476.5c14.9-2.5,25,3.2,30.5,17c3,14.9-2.5,25-16.5,30.5c-14.9,3-25-2.5-30.5-16.5
		C324.1,492.5,329.6,482.2,343.5,476.5z M347.5,493.5c-1.6,0.8-2.8,2.1-3.5,4c-0.9,9,3,11.8,11.5,8.5
		C359.5,497.5,356.9,493.4,347.5,493.5z"/>
</g>
</svg>
