<?xml version="1.0" encoding="utf-8"?>
<!-- Generator: Adobe Illustrator 19.0.0, SVG Export Plug-In . SVG Version: 6.00 Build 0)  -->
<svg version="1.1" id="Camada_1" xmlns="http://www.w3.org/2000/svg" xmlns:xlink="http://www.w3.org/1999/xlink" x="0px" y="0px"
	 viewBox="-49 141 512 512" style="enable-background:new -49 141 512 512;" xml:space="preserve">
<style type="text/css">
	.st0{opacity:0.975;fill:#FFFFFF;enable-background:new    ;}
	.st1{opacity:0.975;fill:#1A4895;enable-background:new    ;}
	.st2{opacity:0.97;fill:#FCFCFC;enable-background:new    ;}
	.st3{opacity:0.944;fill:#FCFCFC;enable-background:new    ;}
	.st4{opacity:0.954;fill:#FFFFFF;enable-background:new    ;}
	.st5{opacity:0.967;fill:#FCFCFC;enable-background:new    ;}
</style>
<path class="st0" d="M-49.5,185.5c10.3,0,20.7,0,31,0c0,10,0,20,0,30c160.3,0,320.7,0,481,0c0,110.7,0,221.3,0,332c-10,0-20,0-30,0
	c0,20,0,40,0,60c-40.3,0-80.7,0-121,0c0-20,0-40,0-60c-9.7,0-19.3,0-29,0c0,20,0,40,0,60c-80.7,0-161.3,0-242,0c0-20,0-40,0-60
	c-19.7,0-39.3,0-59,0c0,10,0,20,0,30c-10.3,0-20.7,0-31,0C-49.5,446.8-49.5,316.2-49.5,185.5z"/>
<path class="st1" d="M-18.5,246.5c150,0,300,0,450,0c0,90,0,180,0,270c-150,0-300,0-450,0c0-9.7,0-19.3,0-29c20,0,40,0,60,0
	c0-30.3,0-60.7,0-91c-20,0-40,0-60,0c0-10,0-20,0-30c20,0,40,0,60,0c0-30.3,0-60.7,0-91c-20,0-40,0-60,0
	C-18.5,265.8-18.5,256.2-18.5,246.5z"/>
<path class="st1" d="M-18.5,306.5c9.7,0,19.3,0,29,0c0,9.7,0,19.3,0,29c-9.7,0-19.3,0-29,0C-18.5,325.8-18.5,316.2-18.5,306.5z"/>
<path class="st1" d="M101.5,306.5c50,0,100,0,150,0c0,50,0,100,0,150c-50,0-100,0-150,0C101.5,406.5,101.5,356.5,101.5,306.5z"/>
<path class="st1" d="M342.5,366.5c9.7,0,19.3,0,29,0c0,10,0,20,0,30c-9.7,0-19.3,0-29,0C342.5,386.5,342.5,376.5,342.5,366.5z"/>
<path class="st1" d="M-18.5,427.5c9.7,0,19.3,0,29,0c0,9.7,0,19.3,0,29c-9.7,0-19.3,0-29,0C-18.5,446.8-18.5,437.2-18.5,427.5z"/>
<path class="st1" d="M71.5,547.5c60,0,120,0,180,0c0,9.7,0,19.3,0,29c-60,0-120,0-180,0C71.5,566.8,71.5,557.2,71.5,547.5z"/>
<path class="st1" d="M342.5,547.5c19.7,0,39.3,0,59,0c0,9.7,0,19.3,0,29c-19.7,0-39.3,0-59,0C342.5,566.8,342.5,557.2,342.5,547.5z"
	/>
<path class="st2" d="M70.5,275.5c70.7,0,141.3,0,212,0c0,70.7,0,141.3,0,212c-70.7,0-141.3,0-212,0
	C70.5,416.8,70.5,346.2,70.5,275.5z M101.5,306.5c0,50,0,100,0,150c50,0,100,0,150,0c0-50,0-100,0-150
	C201.5,306.5,151.5,306.5,101.5,306.5z"/>
<path class="st3" d="M311.5,275.5c10.3,0,20.7,0,31,0c0,10.3,0,20.7,0,31c-10.3,0-20.7,0-31,0C311.5,296.2,311.5,285.8,311.5,275.5z
	"/>
<g>
	<path class="st3" d="M371.5,275.5c10.3,0,20.7,0,31,0c0,10.3,0,20.7,0,31c-10.3,0-20.7,0-31,0C371.5,296.2,371.5,285.8,371.5,275.5
		z"/>
</g>
<path class="st4" d="M130.5,335.5c30.7,0,61.3,0,92,0c0,10.3,0,20.7,0,31c-30.7,0-61.3,0-92,0C130.5,356.2,130.5,345.8,130.5,335.5z
	"/>
<path class="st5" d="M311.5,335.5c30.3,0,60.7,0,91,0c0,30.7,0,61.3,0,92c-30.3,0-60.7,0-91,0C311.5,396.8,311.5,366.2,311.5,335.5z
	 M342.5,366.5c0,10,0,20,0,30c9.7,0,19.3,0,29,0c0-10,0-20,0-30C361.8,366.5,352.2,366.5,342.5,366.5z"/>
<path class="st4" d="M130.5,396.5c30.7,0,61.3,0,92,0c0,10.3,0,20.7,0,31c-30.7,0-61.3,0-92,0C130.5,417.2,130.5,406.8,130.5,396.5z
	"/>
<path class="st3" d="M311.5,456.5c10.3,0,20.7,0,31,0c0,10.3,0,20.7,0,31c-10.3,0-20.7,0-31,0C311.5,477.2,311.5,466.8,311.5,456.5z
	"/>
<g>
	<path class="st3" d="M371.5,456.5c10.3,0,20.7,0,31,0c0,10.3,0,20.7,0,31c-10.3,0-20.7,0-31,0C371.5,477.2,371.5,466.8,371.5,456.5
		z"/>
</g>
</svg>
