<?xml version="1.0" encoding="utf-8"?>
<!-- Generator: Adobe Illustrator 19.0.0, SVG Export Plug-In . SVG Version: 6.00 Build 0)  -->
<svg version="1.1" id="Camada_1" xmlns="http://www.w3.org/2000/svg" xmlns:xlink="http://www.w3.org/1999/xlink" x="0px" y="0px"
	 viewBox="-49 141 512 512" style="enable-background:new -49 141 512 512;" xml:space="preserve">
<style type="text/css">
	.st0{opacity:0.941;fill:#FFFFFF;enable-background:new    ;}
	.st1{opacity:0.941;fill:none;enable-background:new    ;}
	.st2{opacity:0.883;fill:#FFFFFF;enable-background:new    ;}
	.st3{opacity:0.886;fill:#FFFFFF;enable-background:new    ;}
	.st4{opacity:0.94;fill:none;enable-background:new    ;}
	.st5{opacity:0.94;fill:#FFFFFF;enable-background:new    ;}
	.st6{opacity:0.945;fill:#FFFFFF;enable-background:new    ;}
	.st7{opacity:0.881;fill:#FFFFFF;enable-background:new    ;}
	.st8{opacity:0.884;fill:#FFFFFF;enable-background:new    ;}
	.st9{opacity:0.946;fill:#FFFFFF;enable-background:new    ;}
	.st10{opacity:0.888;fill:#FFFFFF;enable-background:new    ;}
</style>
<path class="st0" d="M-1.5,256.5c138.7-0.2,277.3,0,416,0.5c8.7,2.7,13.9,8.5,15.5,17.5c0.7,65.7,0.7,131.3,0,197
	c-2.6,6.3-7.1,8.1-13.5,5.5c-2-1.3-3.2-3.2-3.5-5.5c-0.3-65.3-0.7-130.7-1-196c-0.8-0.6-1.6-1.1-2.5-1.5c-136.1-1-272.1-0.7-408,1
	C0.3,361.4,0.2,447.9,1,534.5c0.5,0.5,1,1,1.5,1.5c136,0.7,272,0.7,408,0c0.5-0.5,1-1,1.5-1.5c0.3-8.3,0.7-16.7,1-25
	c0.6-5,3.4-7.4,8.5-7c4.5-0.3,7.3,1.7,8.5,6c0.7,9,0.7,18,0,27c-1.6,9-6.8,14.8-15.5,17.5c-138.7,0.7-277.3,0.7-416,0
	c-8.7-2.7-13.9-8.5-15.5-17.5c-0.7-87-0.7-174,0-261C-15.2,265.5-10,259.5-1.5,256.5z"/>
<path class="st1" d="M117.5,308.5c1.7,0,3.3,0,5,0c0.3,6.6,0,13.1-1,19.5c-32.5,5.2-54,23.3-64.5,54.5c-1.5,4.6-2.3,9.2-2.5,14
	c-6.7,0-13.3,0-20,0c5.3-39.5,26.3-67,63-82.5C104.2,311.8,110.9,310,117.5,308.5z"/>
<path class="st1" d="M139.5,308.5c42,5.5,70.2,28.2,84.5,68c2,6.5,3.2,13.2,3.5,20c-6.3,0-12.7,0-19,0c-6.4-38.9-29.1-61.8-68-68.5
	C139.5,321.6,139.2,315.1,139.5,308.5z"/>
<path class="st1" d="M294.5,322.5c29.3,0,58.7,0,88,0c0.2,10.7,0,21.3-0.5,32c-6.4,7.5-12.5,15.2-18.5,23c-16.7,1.2-33.3,1.3-50,0.5
	c-6.2-7.5-12.3-15-18.5-22.5C294.5,344.5,294.3,333.5,294.5,322.5z"/>
<path class="st1" d="M119.5,345.5c1,0,2,0,3,0c0,5.7,0,11.3,0,17c-18.3,4.3-29.7,15.7-34,34c-5.7,0.3-11.4,0-17-1
	C77.7,369.3,93.7,352.6,119.5,345.5z"/>
<path class="st1" d="M139.5,345.5c28.7,5.3,45.7,22.3,51,51c-5.3,0.2-10.7,0-16-0.5c-4.7-18.5-16.4-29.7-35-33.5
	C139.5,356.8,139.5,351.2,139.5,345.5z"/>
<path class="st1" d="M128.5,378.5c22.1,1.6,31.3,13.3,27.5,35c-9.2,18-22.7,22.2-40.5,12.5c-11.6-10.7-13.5-22.9-5.5-36.5
	C114.9,383.4,121,379.8,128.5,378.5z"/>
<path class="st1" d="M71.5,413.5c5.7,0,11.3,0,17,0c4.3,18.3,15.7,29.7,34,34c0,5.7,0,11.3,0,17C94.5,458.5,77.5,441.5,71.5,413.5z"
	/>
<path class="st1" d="M174.5,413.5c5.3,0,10.7,0,16,0c-5.3,28.7-22.3,45.7-51,51c0-5.7,0-11.3,0-17
	C158.4,443.6,170,432.3,174.5,413.5z"/>
<path class="st2" d="M26.5,289.5c11.6-0.4,15.8,4.9,12.5,16c-5.9,6.5-11.9,6.5-18,0C18.4,298.5,20.2,293.2,26.5,289.5z"/>
<path class="st3" d="M227.5,289.5c8.2-1.4,13.2,1.9,15,10c-1.8,9.1-7.2,12.3-16,9.5C219.7,302.1,220,295.6,227.5,289.5z"/>
<path class="st4" d="M128.5,378.5c-7.5,1.3-13.6,4.9-18.5,11c-8,13.6-6.1,25.8,5.5,36.5c17.8,9.7,31.3,5.5,40.5-12.5
	C159.8,391.8,150.6,380.1,128.5,378.5z"/>
<path class="st5" d="M237.5,362c-22.9-49-61.6-72.8-116-71.5c-11.5,1.5-22.8,4.4-34,8.5C37,323.2,13.8,363.4,18,419.5
	c9.4,55.8,41.9,88.6,97.5,98.5c42.4,4.7,77.5-8.8,105.5-40.5C246.3,441.9,251.8,403.4,237.5,362z M122.5,501.5
	c-40.8-5.6-68.6-27.6-83.5-66c-2.2-7.2-3.7-14.5-4.5-22c6.7,0,13.3,0,20,0c4.3,31.1,21,52.6,50,64.5c5.6,1.8,11.2,3.1,17,4
	C122.5,488.4,122.8,494.9,122.5,501.5z M88.5,413.5c4.3,18.3,15.7,29.7,34,34c0,5.7,0,11.3,0,17c-28-6-45-23-51-51
	C77.2,413.5,82.8,413.5,88.5,413.5z M71.5,395.5c6.2-26.2,22.2-42.9,48-50c1,0,2,0,3,0c0,5.7,0,11.3,0,17c-18.3,4.3-29.7,15.7-34,34
	C82.8,396.8,77.1,396.5,71.5,395.5z M121.5,328c-32.5,5.2-54,23.3-64.5,54.5c-1.5,4.6-2.3,9.2-2.5,14c-6.7,0-13.3,0-20,0
	c5.3-39.5,26.3-67,63-82.5c6.7-2.2,13.4-4,20-5.5c1.7,0,3.3,0,5,0C122.8,315.1,122.5,321.6,121.5,328z M172.5,493
	c-10.5,4.8-21.5,7.6-33,8.5c-0.3-6.4,0-12.7,1-19c38.8-7.1,61.5-30.1,68-69c6.3,0,12.7,0,19,0C223.5,450,205.2,476.5,172.5,493z
	 M174.5,413.5c5.3,0,10.7,0,16,0c-5.3,28.7-22.3,45.7-51,51c0-5.7,0-11.3,0-17C158.4,443.6,170,432.3,174.5,413.5z M139.5,362.5
	c0-5.7,0-11.3,0-17c28.7,5.3,45.7,22.3,51,51c-5.3,0.2-10.7,0-16-0.5C169.8,377.5,158.1,366.3,139.5,362.5z M208.5,396.5
	c-6.4-38.9-29.1-61.8-68-68.5c-1-6.4-1.3-12.9-1-19.5c42,5.5,70.2,28.2,84.5,68c2,6.5,3.2,13.2,3.5,20
	C221.2,396.5,214.8,396.5,208.5,396.5z"/>
<path class="st6" d="M287.5,305.5c34-0.2,68,0,102,0.5c4.5,1.8,7.7,5,9.5,9.5c0.7,14.7,0.7,29.3,0,44c-0.5,1.7-1.1,3.4-2,5
	c-7.4,8.4-14.4,17-21,26c-2.3,1.9-4.8,3.4-7.5,4.5c-20.3,0.7-40.7,0.7-61,0c-1.3-0.7-2.7-1.3-4-2c-8.5-9.6-16.7-19.4-24.5-29.5
	c-0.8-2.3-1.5-4.6-2-7c-0.9-14-0.6-28,1-42C279.9,310,283,307,287.5,305.5z M294.5,322.5c-0.2,11,0,22,0.5,33
	c6.2,7.5,12.3,15,18.5,22.5c16.7,0.8,33.3,0.7,50-0.5c6-7.8,12.1-15.5,18.5-23c0.5-10.7,0.7-21.3,0.5-32
	C353.2,322.5,323.8,322.5,294.5,322.5z"/>
<path class="st7" d="M311.5,329.5c11.6-0.4,15.8,4.9,12.5,16c-6,6.7-12,6.7-18,0C303.4,338.5,305.2,333.2,311.5,329.5z"/>
<path class="st8" d="M358.5,329.5c10.5-1,15,3.7,13.5,14c-4,7-9.5,8.5-16.5,4.5C349.7,340.7,350.7,334.5,358.5,329.5z"/>
<path class="st3" d="M335.5,352.5c10.3-0.2,14.4,4.8,12.5,15c-3.1,5.1-7.6,7-13.5,5.5c-5.7-3.5-7.6-8.3-5.5-14.5
	C330.5,355.7,332.7,353.7,335.5,352.5z"/>
<path class="st9" d="M400,449.5c-1.7-8.1-6.6-13.2-14.5-15.5c-31.3-0.5-62.7-0.7-94-0.5c-6.9,2.4-11.8,7.1-14.5,14
	c-0.7,14.7-0.7,29.3,0,44c2.3,7.3,7.1,11.8,14.5,13.5c31.3,0.7,62.7,0.7,94,0c7.5-2.2,12.3-7,14.5-14.5
	C400.7,476.8,400.7,463.2,400,449.5z M329.5,488.5c-11.3,0.2-22.7,0-34-0.5c-0.5-0.5-1-1-1.5-1.5c-0.7-11.3-0.7-22.7,0-34
	c0.7-0.5,1.2-1.2,1.5-2c11.3,0,22.7,0,34,0C329.5,463.2,329.5,475.8,329.5,488.5z M381.5,488c-11.3,0.5-22.7,0.7-34,0.5
	c0-12.7,0-25.3,0-38c11.4-0.3,22.7,0,34,1C382.8,463.7,382.8,475.9,381.5,488z"/>
<path class="st2" d="M26.5,500.5c11.6-0.4,15.8,4.9,12.5,16c-6,6.7-12,6.7-18,0C18.4,509.6,20.2,504.2,26.5,500.5z"/>
<path class="st10" d="M228.5,500.5c8-0.9,12.6,2.6,14,10.5c-1.9,9.2-7.2,12.2-16,9C219.4,512.6,220.1,506.1,228.5,500.5z"/>
</svg>
