<?xml version="1.0" encoding="utf-8"?>
<!-- Generator: Adobe Illustrator 19.0.0, SVG Export Plug-In . SVG Version: 6.00 Build 0)  -->
<svg version="1.1" id="Camada_1" xmlns="http://www.w3.org/2000/svg" xmlns:xlink="http://www.w3.org/1999/xlink" x="0px" y="0px"
	 viewBox="-127 285.2 356.3 323.8" style="enable-background:new -127 285.2 356.3 323.8;" xml:space="preserve">
<style type="text/css">
	.st0{fill:#559DE5;}
</style>
<g id="Camada_3">
</g>
<g>
	<path class="st0" d="M220.2,297.6c-8.7-9.4-20.4-9.3-22.2-9.3H-97.2c-2.7,0.1-10.2,0.7-17.1,6.2c-9.6,7.6-10.7,18.7-10.9,20.7
		c0.1,130.4,0.1,183.6,0,187.3c0,0.2-0.1,2.1,0,4.5c0.1,2.5,0.1,5,0.5,7.4c0.3,2.1,1.1,5.2,2.9,8.8c1.6,2.4,4.5,5.9,9.1,8.8
		c8,5,16.1,4.7,19.1,4.5H18.5c-2.4,17.8-4.9,35.5-7.3,53.3c-9.8,0-19.5,0-29.3,0c-0.9-0.1-3.4-0.2-5.5,1.5c-3.4,2.6-2.8,7.5-2.7,8.7
		c0.2,1.5,0.5,4.2,2.8,6c2.2,1.7,4.8,1.5,5.5,1.5h138.2c0.9,0.1,2.6,0.1,4.5-0.9c2.7-1.4,4.3-4.3,4.3-7.2c0.1-3.4-2-5.6-2.6-6.2
		c-1.6-1.7-3.4-2.3-4.3-2.6c-9.8-0.1-19.5-0.2-29.3-0.3c-3-17.8-5.9-35.6-8.9-53.4l113.1-0.1c1.6,0.2,13.6,1.2,22.6-7.9
		c7.3-7.4,7.9-16.5,7.9-18.6V316.2C227.8,313.8,227.1,305,220.2,297.6z M212.8,318.3v160.2h-321.7V313c0.1-0.9,0.4-4.3,3.3-7.1
		c3.8-3.6,8.7-2.9,9.3-2.8h297.7c0.9,0.2,5.9,1.1,9.1,5.9C213.2,313,212.9,317.2,212.8,318.3z"/>
	<g>
		<path class="st0" d="M58.8,347.5c-0.7-3.4-3.7-5.9-7.1-6c-3.5-0.1-6.7,2.5-7.4,6V391c0.3,3.7,3.5,6.7,7.2,6.7
			c3.8,0,6.9-2.9,7.2-6.7L58.8,347.5L58.8,347.5z"/>
		<path class="st0" d="M53.4,433.4c-3-0.1-15.6-0.4-25.9-10.6c-2.1-2.1-11.2-11.6-10.8-26c0.6-19.5,18-29.6,19-30.2
			c1.9-2.6,2.5-5.9,1.3-8.3c-1.8-3.5-7.5-5.1-12.4-2.1c-3.6,2.3-9.1,6.6-13.8,13.5c-6.7,9.7-8.2,19.5-8.6,24.7
			c-0.3,4.6-1,21.5,11.3,35.9c1.4,1.7,9,10.3,22.3,14.8c6,2,21,5.8,37.1-1.5c3.8-1.7,16.8-8.2,24.1-23.6c8.9-18.7,2.5-36.3,1.3-39.3
			c-1.5-3.5-3.7-8.1-7.4-12.9c-4.2-5.6-8.8-9.4-12.2-11.8c-3.1-2.4-7.5-2.1-10.2,0.7c-2.7,2.7-3,7.1-0.6,10.2c3,1.8,9.3,6,13.7,14
			c3.8,6.9,4.5,13.1,4.6,15.2c0.7,10.4-3.5,18.4-5.7,22c-1.9,2.9-7.1,11.1-17.2,14.3C59.1,433.5,55.8,433.4,53.4,433.4z"/>
	</g>
</g>
</svg>
