<?xml version="1.0" encoding="utf-8"?>
<!-- Generator: Adobe Illustrator 19.0.0, SVG Export Plug-In . SVG Version: 6.00 Build 0)  -->
<svg version="1.1" id="Camada_1" xmlns="http://www.w3.org/2000/svg" xmlns:xlink="http://www.w3.org/1999/xlink" x="0px" y="0px"
	 viewBox="-49 141 512 512" style="enable-background:new -49 141 512 512;" xml:space="preserve">
<style type="text/css">
	.st0{opacity:0.951;fill:#FFFFFF;enable-background:new    ;}
	.st1{opacity:0.934;fill:#FFFFFF;enable-background:new    ;}
	.st2{opacity:0.932;fill:#FFFFFF;enable-background:new    ;}
	.st3{opacity:0.968;fill:#FFFFFF;enable-background:new    ;}
	.st4{opacity:0.923;fill:#FFFFFF;enable-background:new    ;}
</style>
<path class="st0" d="M355,174.5c-3.8-17.7-14.3-29-31.5-34c-78,0-156,0-234,0c-17.2,5-27.7,16.4-31.5,34c-0.7,148-0.7,296,0,444
	c3.8,17.6,14.3,29,31.5,34c78,0,156,0,234,0c17.2-5,27.7-16.4,31.5-34C355.7,470.5,355.7,322.5,355,174.5z M137.5,636.5
	c-15,0.4-30-0.1-45-1.5c-8.9-3.2-14.7-9.4-17.5-18.5c-0.5-59-0.7-118-0.5-177c21,10.9,41.9,22.3,62.5,34
	C137.5,527.8,137.7,582.2,137.5,636.5z M338,616.5c-2.8,9.1-8.6,15.3-17.5,18.5c-15,1.4-30,1.9-45,1.5c-0.2-54.3,0-108.7,0.5-163
	c20.3-11.2,40.5-22.6,60.5-34c1.3,29.2,2,58.7,2,88.5C338.3,557.5,338.2,587,338,616.5z M338,419.5c-24.9,14.2-50.1,28-75.5,41.5
	c-1.5,1.2-2.7,2.7-3.5,4.5c-0.5,57-0.7,114-0.5,171c-34.7,0-69.3,0-104,0c0.2-57,0-114-0.5-171c-0.8-1.8-2-3.3-3.5-4.5
	c-25.2-13.8-50.3-27.7-75.5-41.5c-0.7-81-0.7-162,0-243c3.8-11.6,11.6-18.3,23.5-20c72-0.2,144,0,216,0.5
	c12.1,1.4,19.9,7.9,23.5,19.5C338.7,257.5,338.7,338.5,338,419.5z"/>
<g>
	<path class="st1" d="M144.5,214.5c41.3-0.2,82.7,0,124,0.5c6,1.7,8.2,5.5,6.5,11.5c-0.8,1.8-2,3.3-3.5,4.5
		c-43.3,0.7-86.7,0.7-130,0C135.4,224,136.4,218.5,144.5,214.5z"/>
</g>
<g>
	<path class="st2" d="M142.5,248.5c42.7-0.2,85.3,0,128,0.5c5.1,3.4,6.3,7.9,3.5,13.5c-1.4,1-2.9,1.8-4.5,2.5c-42,0.7-84,0.7-126,0
		c-4.2-1-6.2-3.7-6-8C137.5,253.1,139.2,250.3,142.5,248.5z"/>
</g>
<g>
	<path class="st3" d="M204.9,360.1c4.3-0.3,7.5,1.4,9.5,5c0.7,14.3,0.7,28.7,0,43c-5,5.3-10,5.3-15,0c-0.7-14.3-0.7-28.7,0-43
		C200.5,362.4,202.3,360.8,204.9,360.1z"/>
</g>
<g>
	<path class="st4" d="M179.9,379.1c9.2-1,13,3,11.5,12c-11.7,13.3-11.2,26.2,1.5,38.5c17.7,8.6,30.2,3.7,37.5-14.5
		c1.3-9.3-1.3-17.3-8-24c-1.5-9.2,2.3-13,11.5-11.5c14,13.4,17.5,29.2,10.5,47.5c-9.4,17.9-24.2,25.8-44.5,23.5
		c-24.4-6.4-35.5-22.2-33.5-47.5C168.1,393.3,172.6,385.3,179.9,379.1z"/>
</g>
</svg>
