<?xml version="1.0" encoding="utf-8"?>
<!-- Generator: Adobe Illustrator 19.0.0, SVG Export Plug-In . SVG Version: 6.00 Build 0)  -->
<svg version="1.1" id="Camada_1" xmlns="http://www.w3.org/2000/svg" xmlns:xlink="http://www.w3.org/1999/xlink" x="0px" y="0px"
	 viewBox="-127 184.2 356.3 424.8" style="enable-background:new -127 184.2 356.3 424.8;" xml:space="preserve">
<style type="text/css">
	.st0{fill:#DEEBFF;}
</style>
<g id="Camada_3">
</g>
<g id="Camada_2">
	<g>
		<path class="st0" d="M220.2,297.6c-8.7-9.4-20.4-9.3-22.2-9.3H-97.2c-2.7,0.1-10.2,0.7-17.1,6.2c-9.6,7.6-10.7,18.7-10.9,20.7
			c0.1,130.4,0.1,183.6,0,187.3c0,0.2-0.1,2.1,0,4.5c0.1,2.5,0.1,5,0.5,7.4c0.3,2.1,1.1,5.2,2.9,8.8c1.6,2.4,4.5,5.9,9.1,8.8
			c8,5,16.1,4.7,19.1,4.5H18.5c-2.4,17.8-4.9,35.5-7.3,53.3c-9.8,0-19.5,0-29.3,0c-0.9-0.1-3.4-0.2-5.5,1.5
			c-3.4,2.6-2.8,7.5-2.7,8.7c0.2,1.5,0.5,4.2,2.8,6c2.2,1.7,4.8,1.5,5.5,1.5h138.2c0.9,0.1,2.6,0.1,4.5-0.9c2.7-1.4,4.3-4.3,4.3-7.2
			c0.1-3.4-2-5.6-2.6-6.2c-1.6-1.7-3.4-2.3-4.3-2.6c-9.8-0.1-19.5-0.2-29.3-0.3c-3-17.8-5.9-35.6-8.9-53.4l113.1-0.1
			c1.6,0.2,13.6,1.2,22.6-7.9c7.3-7.4,7.9-16.5,7.9-18.6V316.2C227.8,313.8,227.1,305,220.2,297.6z M212.8,318.3v160.2h-321.7V313
			c0.1-0.9,0.4-4.3,3.3-7.1c3.8-3.6,8.7-2.9,9.3-2.8h297.7c0.9,0.2,5.9,1.1,9.1,5.9C213.2,313,212.9,317.2,212.8,318.3z"/>
		<g>
			<path class="st0" d="M58.8,347.5c-0.7-3.4-3.7-5.9-7.1-6c-3.5-0.1-6.7,2.5-7.4,6V391c0.3,3.7,3.5,6.7,7.2,6.7
				c3.8,0,6.9-2.9,7.2-6.7L58.8,347.5L58.8,347.5z"/>
			<path class="st0" d="M53.4,433.4c-3-0.1-15.6-0.4-25.9-10.6c-2.1-2.1-11.2-11.6-10.8-26c0.6-19.5,18-29.6,19-30.2
				c1.9-2.6,2.5-5.9,1.3-8.3c-1.8-3.5-7.5-5.1-12.4-2.1c-3.6,2.3-9.1,6.6-13.8,13.5c-6.7,9.7-8.2,19.5-8.6,24.7
				c-0.3,4.6-1,21.5,11.3,35.9c1.4,1.7,9,10.3,22.3,14.8c6,2,21,5.8,37.1-1.5c3.8-1.7,16.8-8.2,24.1-23.6
				c8.9-18.7,2.5-36.3,1.3-39.3c-1.5-3.5-3.7-8.1-7.4-12.9c-4.2-5.6-8.8-9.4-12.2-11.8c-3.1-2.4-7.5-2.1-10.2,0.7
				c-2.7,2.7-3,7.1-0.6,10.2c3,1.8,9.3,6,13.7,14c3.8,6.9,4.5,13.1,4.6,15.2c0.7,10.4-3.5,18.4-5.7,22c-1.9,2.9-7.1,11.1-17.2,14.3
				C59.1,433.5,55.8,433.4,53.4,433.4z"/>
		</g>
		<g>
			<path class="st0" d="M52.4,256.5c-3.4-0.1-7.5,0.1-12,0.8c-4.2,0.6-7.9,1.6-10.9,2.6c-4.3,0.9-7.4,4.5-7.5,8.4
				c-0.1,5,4.8,8.3,8.4,8.8c2.1,0.3,3-0.5,7.7-2.1c2.7-1.1,6-2,9.8-2.5c10.9-1.4,19.8,1.9,24.2,4c3.5,0.1,6.7-1.9,8.1-5.1
				c1.4-3.4,0.5-7.4-2.3-9.8c-3.3-1.3-7.5-2.7-12.4-3.7C60.5,256.9,56,256.6,52.4,256.5z"/>
			<path class="st0" d="M51.4,221.4c-10.9,0.3-19.1,2.4-23.8,3.6c-8.5,2.2-15.5,5.1-20.7,7.5c-0.7,0.4-2.2,1.5-3.2,3.4
				c-1.5,3.1-0.5,6.1-0.3,6.7c0.4,1,1.6,3.4,4.1,4.4c2.1,0.8,4.2,0.6,6-0.4c3.1-1.8,7.1-3.9,12.2-5.9c2.9-1.1,8-3.1,14.3-4.3
				c11.2-2.1,20.3-0.6,24.8,0.2c10.8,1.9,19.2,5.8,24.8,9c0.3,0.2,3.5,2.2,6.7,0.9c2.5-1,3.4-3.4,3.9-4.5c0.2-0.5,1.9-4.8-0.3-7.8
				c-0.7-1-1.4-1.3-5.3-3.1c-4.2-2-4.9-2.4-5.8-2.8c0,0-0.2-0.1-0.5-0.2C71.8,220.9,51.4,221.4,51.4,221.4z"/>
			<path class="st0" d="M51.3,185.7c-8.1,0.1-14.5,1.1-17.9,1.6c-2,0.3-9.6,1.5-19.6,4.4c-10.2,2.9-15.8,5.6-18.9,7.1
				c-8.6,4.4-10.5,7.1-11.2,9.6c0,0.1,0,0.1,0,0.1c-0.6,2.6,0,5.8,1.8,8c3.2,3.8,8.7,2.9,9.3,2.8c2.5-0.4,3.4-1.4,7.5-4.2
				c0,0,2.9-1.7,8.8-4.6c3.1-1.5,8.1-3.7,14.3-5.4c1.5-0.4,7.2-2,15-2.8c6.1-0.6,10.5-0.5,16.7-0.3c4.9,0.2,8.2,0.3,12.7,0.9
				c5.8,0.9,10,2.2,12.8,3c9.4,2.9,16.1,6.4,20.2,8.5c2.4,1.3,4.4,2.4,5.7,3.2c0.5,0.3,3.7,2.2,7.3,0.9c2.4-0.9,3.6-2.6,4-3.1
				c1-1.5,2-4.4,1.3-7c-0.6-1.9-2.2-3-5.3-5.3c-3.3-2.3-5.9-3.5-5.9-3.5c-4.2-2.4-9.4-5-15.6-7.2c-5.3-1.9-10.3-3.2-14.6-4
				C68.3,186.1,58.5,185.6,51.3,185.7z"/>
		</g>
	</g>
</g>
</svg>
