<?xml version="1.0" encoding="utf-8"?>
<!-- Generator: Adobe Illustrator 19.0.0, SVG Export Plug-In . SVG Version: 6.00 Build 0)  -->
<svg version="1.1" xmlns="http://www.w3.org/2000/svg" xmlns:xlink="http://www.w3.org/1999/xlink" x="0px" y="0px"
	 viewBox="0 0 100 90" enable-background="new 0 0 100 90" xml:space="preserve">
<g id="Camada_2_1_">
</g>
<g id="Camada_1">
	<g id="Camada_2">
		<g id="XMLID_30_">
			
				<linearGradient id="XMLID_20_" gradientUnits="userSpaceOnUse" x1="29.3165" y1="59.22" x2="73.0527" y2="59.22" gradientTransform="matrix(1 0 0 -1 0 92)">
				<stop  offset="0" style="stop-color:#1F7EB1"/>
				<stop  offset="0.5153" style="stop-color:#1A4895"/>
				<stop  offset="1" style="stop-color:#1F7EB1"/>
			</linearGradient>
			<path id="XMLID_38_" fill="url(#XMLID_20_)" d="M72.1,14.1C71.1,13,69.6,13,69.4,13H32.8c-0.3,0-1.3,0.1-2.1,0.8
				c-1.2,0.9-1.3,2.3-1.4,2.6c0,16.2,0,22.8,0,23.2c0,0,0,0.3,0,0.6c0,0.3,0,0.6,0.1,0.9c0,0.3,0.1,0.6,0.4,1.1
				c0.2,0.3,0.6,0.7,1.1,1.1c1,0.6,2,0.6,2.4,0.6h13.9c-0.3,2.2-0.6,4.4-0.9,6.6c-1.2,0-2.4,0-3.6,0c-0.1,0-0.4,0-0.7,0.2
				c-0.4,0.3-0.3,0.9-0.3,1.1c0,0.2,0.1,0.5,0.3,0.7c0.3,0.2,0.6,0.2,0.7,0.2h17.1c0.1,0,0.3,0,0.6-0.1c0.3-0.2,0.5-0.5,0.5-0.9
				c0-0.4-0.2-0.7-0.3-0.8c-0.2-0.2-0.4-0.3-0.5-0.3c-1.2,0-2.4,0-3.6,0c-0.4-2.2-0.7-4.4-1.1-6.6l14,0c0.2,0,1.7,0.1,2.8-1
				c0.9-0.9,1-2,1-2.3V16.5C73.1,16.2,73,15.1,72.1,14.1z M71.2,16.7v19.9H31.3V16.1c0-0.1,0-0.5,0.4-0.9c0.5-0.4,1.1-0.4,1.2-0.3
				h36.9c0.1,0,0.7,0.1,1.1,0.7C71.3,16.1,71.2,16.6,71.2,16.7z"/>
			<g id="XMLID_35_">
				
					<linearGradient id="XMLID_21_" gradientUnits="userSpaceOnUse" x1="50.3376" y1="68.9295" x2="52.1351" y2="68.9295" gradientTransform="matrix(1 0 0 -1 0 92)">
					<stop  offset="0" style="stop-color:#1F7EB1"/>
					<stop  offset="0.5153" style="stop-color:#1A4895"/>
					<stop  offset="1" style="stop-color:#1F7EB1"/>
				</linearGradient>
				<path id="XMLID_15_" fill="url(#XMLID_21_)" d="M52.1,20.3c-0.1-0.4-0.5-0.7-0.9-0.7c-0.4,0-0.8,0.3-0.9,0.7v5.4
					c0,0.5,0.4,0.8,0.9,0.8c0.5,0,0.9-0.4,0.9-0.8L52.1,20.3L52.1,20.3z"/>
				
					<linearGradient id="XMLID_22_" gradientUnits="userSpaceOnUse" x1="45.1004" y1="65.02" x2="57.4441" y2="65.02" gradientTransform="matrix(1 0 0 -1 0 92)">
					<stop  offset="0" style="stop-color:#1F7EB1"/>
					<stop  offset="0.5153" style="stop-color:#1A4895"/>
					<stop  offset="1" style="stop-color:#1F7EB1"/>
				</linearGradient>
				<path id="XMLID_14_" fill="url(#XMLID_22_)" d="M51.5,31c-0.4,0-1.9,0-3.2-1.3c-0.3-0.3-1.4-1.4-1.3-3.2
					c0.1-2.4,2.2-3.7,2.4-3.7c0.2-0.3,0.3-0.7,0.2-1c-0.2-0.4-0.9-0.6-1.5-0.3c-0.4,0.3-1.1,0.8-1.7,1.7c-0.8,1.2-1,2.4-1.1,3.1
					c0,0.6-0.1,2.7,1.4,4.5c0.2,0.2,1.1,1.3,2.8,1.8c0.7,0.2,2.6,0.7,4.6-0.2c0.5-0.2,2.1-1,3-2.9c1.1-2.3,0.3-4.5,0.2-4.9
					c-0.2-0.4-0.5-1-0.9-1.6c-0.5-0.7-1.1-1.2-1.5-1.5c-0.4-0.3-0.9-0.3-1.3,0.1c-0.3,0.3-0.4,0.9-0.1,1.3c0.4,0.2,1.2,0.7,1.7,1.7
					c0.5,0.9,0.6,1.6,0.6,1.9c0.1,1.3-0.4,2.3-0.7,2.7c-0.2,0.4-0.9,1.4-2.1,1.8C52.2,31,51.8,31,51.5,31z"/>
			</g>
			<g id="XMLID_31_">
				
					<linearGradient id="XMLID_23_" gradientUnits="userSpaceOnUse" x1="47.57" y1="81.671" x2="54.8659" y2="81.671" gradientTransform="matrix(1 0 0 -1 0 92)">
					<stop  offset="0" style="stop-color:#1F7EB1"/>
					<stop  offset="0.5153" style="stop-color:#1A4895"/>
					<stop  offset="1" style="stop-color:#1F7EB1"/>
				</linearGradient>
				<path id="XMLID_13_" fill="url(#XMLID_23_)" d="M51.3,9c-0.4,0-0.9,0-1.5,0.1c-0.5,0.1-1,0.2-1.4,0.3c-0.5,0.1-0.9,0.6-0.9,1
					c0,0.6,0.6,1,1,1.1c0.3,0,0.4-0.1,1-0.3c0.3-0.1,0.7-0.2,1.2-0.3c1.4-0.2,2.5,0.2,3,0.5c0.4,0,0.8-0.2,1-0.6
					c0.2-0.4,0.1-0.9-0.3-1.2c-0.4-0.2-0.9-0.3-1.5-0.5C52.3,9.1,51.8,9.1,51.3,9z"/>
				
					<linearGradient id="XMLID_24_" gradientUnits="userSpaceOnUse" x1="45.201" y1="85.6846" x2="57.3783" y2="85.6846" gradientTransform="matrix(1 0 0 -1 0 92)">
					<stop  offset="0" style="stop-color:#1F7EB1"/>
					<stop  offset="0.5153" style="stop-color:#1A4895"/>
					<stop  offset="1" style="stop-color:#1F7EB1"/>
				</linearGradient>
				<path id="XMLID_12_" fill="url(#XMLID_24_)" d="M51.2,4.7c-1.4,0-2.4,0.3-3,0.4c-1.1,0.3-1.9,0.6-2.6,0.9
					c-0.1,0-0.3,0.2-0.4,0.4c-0.2,0.4-0.1,0.8,0,0.8c0,0.1,0.2,0.4,0.5,0.5c0.3,0.1,0.5,0.1,0.7,0c0.4-0.2,0.9-0.5,1.5-0.7
					c0.4-0.1,1-0.4,1.8-0.5c1.4-0.3,2.5-0.1,3.1,0c1.3,0.2,2.4,0.7,3.1,1.1c0,0,0.4,0.3,0.8,0.1c0.3-0.1,0.4-0.4,0.5-0.6
					c0-0.1,0.2-0.6,0-1c-0.1-0.1-0.2-0.2-0.7-0.4C56,5.7,56,5.6,55.9,5.6c0,0,0,0-0.1,0C53.7,4.6,51.2,4.7,51.2,4.7z"/>
				
					<linearGradient id="XMLID_25_" gradientUnits="userSpaceOnUse" x1="42.7943" y1="89.6352" x2="59.8845" y2="89.6352" gradientTransform="matrix(1 0 0 -1 0 92)">
					<stop  offset="0" style="stop-color:#1F7EB1"/>
					<stop  offset="0.5153" style="stop-color:#1A4895"/>
					<stop  offset="1" style="stop-color:#1F7EB1"/>
				</linearGradient>
				<path id="XMLID_11_" fill="url(#XMLID_25_)" d="M51.2,0.3c-1,0-1.8,0.1-2.2,0.2c-0.2,0-1.2,0.2-2.4,0.5c-1.3,0.4-2,0.7-2.3,0.9
					c-1.1,0.5-1.3,0.9-1.4,1.2c0,0,0,0,0,0c-0.1,0.3,0,0.7,0.2,1c0.4,0.5,1.1,0.4,1.2,0.3c0.3,0,0.4-0.2,0.9-0.5
					c0,0,0.4-0.2,1.1-0.6c0.4-0.2,1-0.5,1.8-0.7c0.2,0,0.9-0.2,1.9-0.3c0.8-0.1,1.3-0.1,2.1,0c0.6,0,1,0,1.6,0.1
					c0.7,0.1,1.2,0.3,1.6,0.4c1.2,0.4,2,0.8,2.5,1.1c0.3,0.2,0.5,0.3,0.7,0.4c0.1,0,0.5,0.3,0.9,0.1C59.5,4.2,59.6,4,59.7,4
					c0.1-0.2,0.2-0.5,0.2-0.9c-0.1-0.2-0.3-0.4-0.7-0.7C58.8,2.1,58.5,2,58.5,2c-0.5-0.3-1.2-0.6-1.9-0.9c-0.7-0.2-1.3-0.4-1.8-0.5
					C53.3,0.3,52.1,0.3,51.2,0.3z"/>
			</g>
		</g>
		
			<linearGradient id="XMLID_26_" gradientUnits="userSpaceOnUse" x1="1.0819" y1="13.0876" x2="98.9181" y2="13.0876" gradientTransform="matrix(1 0 0 -1 0 92)">
			<stop  offset="0" style="stop-color:#1F7EB1"/>
			<stop  offset="0.5153" style="stop-color:#1A4895"/>
			<stop  offset="1" style="stop-color:#1F7EB1"/>
		</linearGradient>
		<path id="XMLID_19_" fill="url(#XMLID_26_)" d="M9.9,71.6H7v18H4v-18H1.1v-3h8.8V71.6z M21.9,89.5h-8.8v-21h8.8v3H16V76h5.1v3H16
			v7.5h5.9V89.5z M34,85.4c0,1.1-0.4,2.2-1.3,3s-1.9,1.3-3.1,1.3c-1.3,0-2.4-0.4-3.2-1.2c-0.8-0.8-1.2-1.9-1.2-3.3V72.9
			c0-1.3,0.4-2.4,1.3-3.3c0.8-0.9,1.9-1.4,3.1-1.4c1.4,0,2.5,0.5,3.3,1.4c0.7,0.9,1.1,1.9,1.1,3.3v1.4h-2.9v-1.4
			c0-0.4-0.1-0.8-0.4-1.1c-0.3-0.3-0.6-0.5-1-0.5c-0.4,0-0.7,0.2-1,0.5c-0.3,0.3-0.4,0.7-0.4,1.1v12.3c0,0.4,0.1,0.8,0.4,1.1
			c0.3,0.3,0.6,0.4,1,0.4c0.4,0,0.8-0.1,1.1-0.4c0.3-0.3,0.4-0.6,0.4-1.1v-1.5H34V85.4z M46.2,89.5h-2.9V79h-2.9v10.5h-3v-21h3V76
			h2.9v-7.5h2.9V89.5z M65.4,85.3c0,1.1-0.5,2.1-1.4,3c-0.9,0.9-2,1.4-3,1.4c-1.3,0-2.4-0.4-3.2-1.2c-0.8-0.8-1.2-1.9-1.2-3.3v-1.5
			h3v1.5c0,0.4,0.1,0.8,0.4,1.1c0.3,0.3,0.6,0.4,1,0.4s0.8-0.1,1-0.4c0.3-0.3,0.4-0.6,0.4-1.1v-4.8c0-0.4-0.1-0.7-0.4-1
			c-0.3-0.3-0.6-0.4-1-0.4c-1.3,0-2.3-0.5-3.1-1.4c-0.8-0.9-1.2-2-1.2-3.3v-1.5c0-1.3,0.4-2.4,1.2-3.2c0.8-0.9,1.9-1.3,3.1-1.3
			c1.1,0,2.2,0.4,3.1,1.3c0.9,0.9,1.4,1.9,1.4,3v1.6h-3v-1.5c0-0.4-0.1-0.8-0.4-1.1c-0.3-0.3-0.6-0.4-1-0.4c-0.4,0-0.7,0.1-1,0.4
			c-0.3,0.3-0.4,0.6-0.4,1.1v1.7c0,0.4,0.1,0.8,0.4,1.1c0.3,0.3,0.6,0.4,1,0.4c1.2,0,2.2,0.4,3.1,1.3s1.4,1.9,1.4,3.1L65.4,85.3
			L65.4,85.3z M77.2,71.6h-3v18h-2.9v-18h-2.9v-3h8.8L77.2,71.6L77.2,71.6z M86.7,89.5h-3l-0.5-4.5h-2.4l-0.4,4.5h-3l3.1-21h3
			L86.7,89.5z M83,82c-0.2-2.6-0.5-5.4-0.9-8.4c-0.2,0.4-0.5,3.2-0.9,8.4H83z M98.9,89.6h-3l-1.7-7.5h-1.4v7.5h-2.9v-21h4.5
			c1.2,0,2.2,0.4,3,1.3c0.9,0.9,1.3,1.9,1.3,3.1v4.7c0,1.4-0.6,2.5-1.7,3.4L98.9,89.6z M95.8,77.6V73c0-0.4-0.1-0.8-0.4-1.1
			c-0.3-0.3-0.6-0.4-1.1-0.4h-1.5v7.5h1.5c0.4,0,0.8-0.1,1-0.4C95.6,78.3,95.8,78,95.8,77.6z"/>
	</g>
</g>
</svg>
