<?xml version="1.0" encoding="utf-8"?>
<!-- Generator: Adobe Illustrator 19.0.0, SVG Export Plug-In . SVG Version: 6.00 Build 0)  -->
<svg version="1.1" id="Camada_2" xmlns="http://www.w3.org/2000/svg" xmlns:xlink="http://www.w3.org/1999/xlink" x="0px" y="0px"
	 viewBox="284 -72 820 742" style="enable-background:new 284 -72 820 742;" xml:space="preserve">
<style type="text/css">
	.st0{fill:#F5FAFF;}
</style>
<g>
	<path class="st0" d="M1081.5-46.2c-20-21.5-46.8-21.5-51.1-21.4H352.8c-6.2,0.2-23.3,1.6-39.2,14.3c-22,17.5-24.6,43-25,47.5
		c0.3,299.4,0.2,421.7,0,430.1c0,0.6-0.1,4.7,0,10.3c0.1,5.7,0.3,11.4,1.2,17c0.8,4.9,2.5,11.9,6.7,20.2c3.7,5.4,10.3,13.6,21,20.2
		c18.5,11.5,37,10.9,44,10.3h257.4c-5.6,40.8-11.2,81.6-16.8,122.4c-22.4,0-44.9,0-67.3,0c-2-0.2-7.8-0.4-12.7,3.4
		c-7.8,6.1-6.5,17.2-6.1,20c0.4,3.5,1.2,9.7,6.5,13.9c5.1,4,11,3.5,12.7,3.4h317.4c2,0.1,6.1,0.1,10.3-2.2c6.1-3.3,9.8-10,9.9-16.6
		c0.1-7.7-4.7-12.9-5.9-14.3c-3.7-3.9-7.9-5.4-9.9-5.9c-22.4-0.2-44.8-0.4-67.2-0.7c-6.8-40.9-13.6-81.8-20.3-122.6l259.8-0.3
		c3.7,0.4,31.1,2.7,51.9-18.2c16.8-16.9,18.1-37.8,18.2-42.8V-3.4C1099.1-9.1,1097.4-29.1,1081.5-46.2z M1064.5,1.4v367.9H325.9
		V-10.9c0.1-2,0.9-10,7.5-16.2c8.7-8.3,20.1-6.6,21.4-6.3h683.6c2.1,0.4,13.6,2.6,21,13.5C1065.6-10.8,1064.8-1.2,1064.5,1.4z"/>
	<g>
		<path class="st0" d="M710.1,60.1c-1.6-7.9-8.4-13.6-16.4-13.7c-8.1-0.1-15.3,5.7-16.9,13.7v100.1c0.7,8.6,8,15.3,16.6,15.3
			s15.9-6.7,16.6-15.3L710.1,60.1L710.1,60.1z"/>
		<path class="st0" d="M697.6,257.3c-6.8-0.2-35.9-1-59.4-24.3c-4.7-4.7-25.7-26.6-24.7-59.8c1.4-44.7,41.4-68,43.7-69.3
			c4.5-6,5.8-13.5,2.9-19c-4.2-8-17.3-11.8-28.5-4.8c-8.2,5.3-20.8,15.1-31.7,30.9c-15.3,22.3-18.9,44.7-19.8,56.7
			c-0.8,10.5-2.2,49.3,25.9,82.5c3.3,3.9,20.6,23.8,51.2,34.1c13.7,4.6,48.1,13.4,85.3-3.4c8.7-3.9,38.7-18.8,55.4-54.1
			c20.5-43,5.6-83.3,2.9-90.3c-3.3-8.2-8.6-18.6-16.9-29.6c-9.7-12.8-20.1-21.6-28-27.2c-7.1-5.4-17.2-4.7-23.5,1.6
			c-6.2,6.3-6.9,16.3-1.5,23.4c7,4.1,21.3,13.8,31.6,32.1c8.8,15.8,10.2,30.1,10.6,34.9c1.6,24-7.9,42.2-13.2,50.4
			c-4.3,6.7-16.3,25.6-39.6,32.7C710.8,257.6,703,257.5,697.6,257.3z"/>
	</g>
</g>
</svg>
