<?xml version="1.0" encoding="utf-8"?>
<!-- Generator: Adobe Illustrator 19.0.0, SVG Export Plug-In . SVG Version: 6.00 Build 0)  -->
<svg version="1.1" id="Camada_1" xmlns="http://www.w3.org/2000/svg" xmlns:xlink="http://www.w3.org/1999/xlink" x="0px" y="0px"
	 viewBox="-49 141 512 512" style="enable-background:new -49 141 512 512;" xml:space="preserve">
<style type="text/css">
	.st0{opacity:0.952;fill:#FFFFFF;enable-background:new    ;}
	.st1{opacity:0.952;fill:#234A93;enable-background:new    ;}
	.st2{opacity:0.952;fill:none;enable-background:new    ;}
	.st3{opacity:0.952;fill:#204994;enable-background:new    ;}
	.st4{opacity:0.935;fill:#FFFFFF;enable-background:new    ;}
	.st5{opacity:0.888;fill:#FFFFFF;enable-background:new    ;}
	.st6{opacity:0.927;fill:#FFFFFF;enable-background:new    ;}
	.st7{opacity:0.892;fill:#FFFFFF;enable-background:new    ;}
	.st8{opacity:0.881;fill:#FFFFFF;enable-background:new    ;}
	.st9{opacity:0.946;fill:#FFFFFF;enable-background:new    ;}
	.st10{opacity:0.939;fill:#FFFFFF;enable-background:new    ;}
	.st11{opacity:0.885;fill:#FFFFFF;enable-background:new    ;}
	.st12{opacity:0.882;fill:#FFFFFF;enable-background:new    ;}
	.st13{opacity:0.895;fill:#FFFFFF;enable-background:new    ;}
	.st14{opacity:0.905;fill:#FFFFFF;enable-background:new    ;}
	.st15{opacity:0.916;fill:#FFFFFF;enable-background:new    ;}
	.st16{opacity:0.924;fill:#FFFFFF;enable-background:new    ;}
	.st17{opacity:0.926;fill:#FFFFFF;enable-background:new    ;}
</style>
<path class="st0" d="M-3.5,140.5c148.3,0,296.7,0,445,0c9.6,3.8,15.4,10.8,17.5,21c0.7,156.7,0.7,313.3,0,470
	c-2.1,10.2-7.9,17.2-17.5,21c-48,0-96,0-144,0c-4.2-3.5-5-7.9-2.5-13c0.8-0.6,1.6-1.1,2.5-1.5c45.3-0.3,90.7-0.7,136-1
	c5-0.3,8.1-2.8,9.5-7.5c0.7-155.3,0.7-310.7,0-466c-1.4-4.7-4.5-7.2-9.5-7.5c-39-0.5-78-0.7-117-0.5c0.2,22.3,0,44.7-0.5,67
	c-2.4,5.9-6.6,7.4-12.5,4.5c-1.2-0.9-2-2.1-2.5-3.5c-0.5-22.7-0.7-45.3-0.5-68c-4.7,0-9.3,0-14,0c-0.2,80,0,160,0.5,240
	c4.3,1.3,8.7,1.3,13,0c0.3-49.7,0.7-99.3,1-149c5.5-5.6,10.5-5.2,15,1c0.7,50.7,0.7,101.3,0,152c-4.1,10.1-11.6,14.1-22.5,12
	c-10.6,2.3-18.1-1.4-22.5-11c-0.5-81.7-0.7-163.3-0.5-245c-5.3,0-10.7,0-16,0c0.2,82,0,164-0.5,246c-4.6,9-11.9,12.3-22,10
	c-12.8,2.5-20.4-2.5-23-15c-0.5-80.3-0.7-160.7-0.5-241c-69.4-0.5-138.7,0-208,1.5c-2.9,1.3-4.8,3.4-5.5,6.5
	c-0.5,25.3-0.7,50.7-0.5,76c4-0.2,8,0,12,0.5c0.8,0.8,1.7,1.7,2.5,2.5c1.1,8.1,1.6,16.2,1.5,24.5c0.1,8.6-0.4,17.1-1.5,25.5
	c-0.9,1.2-2.1,2-3.5,2.5c-3.7,0.5-7.3,0.7-11,0.5c0,6.7,0,13.3,0,20c4.1-0.3,8.1,0.2,12,1.5c1.5,1.2,2.7,2.7,3.5,4.5
	c0.7,28.7,0.7,57.3,0,86c-0.7,2.6-2.2,4.4-4.5,5.5c-3.7,0.5-7.3,0.7-11,0.5c0,6.7,0,13.3,0,20c5.5-0.9,10.4,0.5,14.5,4
	c1.1,8.1,1.6,16.2,1.5,24.5c0.1,8.6-0.4,17.1-1.5,25.5c-0.9,1.2-2.1,2-3.5,2.5c-3.7,0.5-7.3,0.7-11,0.5c0,7,0,14,0,21
	c10.3-0.2,20.7,0,31,0.5c2.3,1.6,3.4,3.7,3.5,6.5c0.7,14,0.7,28,0,42c-0.4,2-1.3,3.9-2.5,5.5c-10.6,1.5-21.2,2-32,1.5
	c-0.2,20.7,0,41.3,0.5,62c0.7,3.1,2.6,5.2,5.5,6.5c91.6,1.3,183.3,2,275,2c5.3,4.8,5.3,9.7,0,14.5c-93,0-186,0-279,0
	c-9.6-3.8-15.4-10.8-17.5-21c-0.5-21.3-0.7-42.7-0.5-64c-6.7,0.2-13.3,0-20-0.5c-1.4-0.5-2.6-1.3-3.5-2.5
	c-1.1-8.4-1.6-16.9-1.5-25.5c-0.1-8.3,0.4-16.4,1.5-24.5c0.8-0.8,1.7-1.7,2.5-2.5c7-0.5,14-0.7,21-0.5c0-7,0-14,0-21
	c-6.7,0.2-13.3,0-20-0.5c-1.4-0.5-2.6-1.3-3.5-2.5c-1.1-8.4-1.6-16.9-1.5-25.5c-6.5-23,1.9-32.5,25-28.5c0-6.7,0-13.3,0-20
	c-6.7,0.2-13.3,0-20-0.5c-2.3-1.1-3.8-2.9-4.5-5.5c-0.2-14.3-0.3-28.7-0.5-43c-0.2-15.1,0.3-30.1,1.5-45c1.3-2,3.2-3.2,5.5-3.5
	c6-0.5,12-0.7,18-0.5c0-6.7,0-13.3,0-20c-6.7,0.2-13.3,0-20-0.5c-1.4-0.5-2.6-1.3-3.5-2.5c-1.1-8.4-1.6-16.9-1.5-25.5
	c-0.1-8.3,0.4-16.4,1.5-24.5c0.8-0.8,1.7-1.7,2.5-2.5c7-0.5,14-0.7,21-0.5c-0.2-26,0-52,0.5-78C-18.9,151.3-13.1,144.3-3.5,140.5z"
	/>
<path class="st1" d="M224.5,155.5c4.7,0,9.3,0,14,0c0.2,80,0,160-0.5,240c-4.3,1.3-8.7,1.3-13,0
	C224.5,315.5,224.3,235.5,224.5,155.5z"/>
<path class="st2" d="M351.5,196.5c20.3,0,40.7,0,61,0c0,4,0,8,0,12c-20.3,0-40.7,0-61,0C351.5,204.5,351.5,200.5,351.5,196.5z"/>
<path class="st2" d="M375.5,253.5c15-1.8,24,4.7,27,19.5c-4,18.3-14.7,24-32,17c-9.9-8.5-11.4-18.4-4.5-29.5
	C369.1,257.9,372.2,255.6,375.5,253.5z"/>
<path class="st3" d="M-30.5,255.5c8.3,0,16.7,0,25,0c0,8,0,16,0,24c-8.3,0-16.7,0-25,0C-30.5,271.5-30.5,263.5-30.5,255.5z"/>
<path class="st2" d="M83.5,325.5c15.7-0.2,31.3,0,47,0.5c1.4,1.2,2.4,2.7,3,4.5c-5.3,7.8-10.8,15.5-16.5,23c-4.5,7-7.1,14.7-8,23
	c-0.5,9.3-0.7,18.7-0.5,28c-9.3,0-18.7,0-28,0c-0.2-25.3,0-50.7,0.5-76C81.7,327.3,82.5,326.3,83.5,325.5z"/>
<path class="st3" d="M-30.5,331.5c8.3,0,16.7,0,25,0c0,22,0,44,0,66c-8.3,0-16.7,0-25,0C-30.5,375.5-30.5,353.5-30.5,331.5z"/>
<path class="st3" d="M-30.5,449.5c8.3,0,16.7,0,25,0c0,8.3,0,16.7,0,25c-8.3,0-16.7,0-25,0C-30.5,466.2-30.5,457.8-30.5,449.5z"/>
<path class="st2" d="M294.5,454.5c26.3,0,52.7,0,79,0c0,26.7,0,53.3,0,80c-26.3,0-52.7,0-79,0C294.5,507.8,294.5,481.2,294.5,454.5z
	"/>
<path class="st2" d="M71.5,499.5c10.1,0.3,14,5.3,11.5,15c-6.5,6.9-12.5,6.6-18-1C63.2,506.8,65.3,502.2,71.5,499.5z"/>
<path class="st2" d="M204.5,499.5c8.3-0.2,12.5,3.8,12.5,12c-2.1,6.8-6.6,9.3-13.5,7.5c-5.5-2.9-7.4-7.4-5.5-13.5
	C199.5,502.7,201.7,500.7,204.5,499.5z"/>
<path class="st3" d="M-30.5,526.5c14.7,0,29.3,0,44,0c0,8.3,0,16.7,0,25c-14.7,0-29.3,0-44,0C-30.5,543.2-30.5,534.8-30.5,526.5z"/>
<path class="st2" d="M78.5,579.5c59.7,0,119.3,0,179,0c0,7.3,0,14.7,0,22c-59.7,0-119.3,0-179,0C78.5,594.2,78.5,586.8,78.5,579.5z"
	/>
<g>
	<path class="st4" d="M344.5,180.5c25-0.2,50,0,75,0.5c4.6,1.6,7.4,4.8,8.5,9.5c0.9,9.4,0.6,18.7-1,28c-1.9,2.2-4,4-6.5,5.5
		c-25.7,0.7-51.3,0.7-77,0c-3.8-1.2-6.3-3.7-7.5-7.5c-0.9-10.1-0.6-20.1,1-30C339.1,183.9,341.6,181.9,344.5,180.5z M351.5,196.5
		c0,4,0,8,0,12c20.3,0,40.7,0,61,0c0-4,0-8,0-12C392.2,196.5,371.8,196.5,351.5,196.5z"/>
</g>
<g>
	<path class="st5" d="M53.5,194.5c5.1-0.3,10.1,0.2,15,1.5c4.4,5.4,3.8,10.1-2,14c-5.4,0.9-10.8,0.6-16-1
		C46.6,203.3,47.6,198.4,53.5,194.5z"/>
</g>
<g>
	<path class="st5" d="M100.5,194.5c5.1-0.3,10.1,0.2,15,1.5c4.2,5,3.8,9.6-1,14c-5.8,0.9-11.4,0.6-17-1
		C94.1,203.1,95.1,198.2,100.5,194.5z"/>
</g>
<g>
	<path class="st5" d="M147.5,194.5c5.1-0.3,10.1,0.2,15,1.5c4.2,5,3.8,9.6-1,14c-5.8,0.9-11.4,0.6-17-1
		C141.1,203.1,142.1,198.2,147.5,194.5z"/>
</g>
<g>
	<path class="st6" d="M373.5,237.5c19.9-2.6,34.1,5,42.5,23c5.9,22.7-1.9,38.5-23.5,47.5c-22,4.3-37.1-3.9-45.5-24.5
		C343.1,260.6,351.9,245.3,373.5,237.5z M375.5,253.5c-3.3,2.1-6.4,4.4-9.5,7c-6.9,11.1-5.4,21,4.5,29.5c17.3,7,28,1.3,32-17
		C399.5,258.2,390.5,251.7,375.5,253.5z"/>
</g>
<g>
	<path class="st7" d="M79.5,239.5c5.5-0.4,10.8,0.1,16,1.5c4.3,9.3,1.3,14.1-9,14.5c-8.7,0.4-12.2-3.6-10.5-12
		C76.7,241.6,77.9,240.3,79.5,239.5z"/>
</g>
<g>
	<path class="st8" d="M119.5,239.5c5-0.2,10,0,15,0.5c5.9,6.4,4.9,11.4-3,15c-4.1,0.8-8.1,0.4-12-1
		C114.2,249.2,114.2,244.3,119.5,239.5z"/>
</g>
<g>
	<path class="st9" d="M50.5,279.5c37.7-0.2,75.3,0,113,0.5c4.7,1.4,8.2,4.2,10.5,8.5c1.7,49.6,2,99.3,1,149
		c-1.7,5.4-5.2,9.2-10.5,11.5c-10,0.5-20,0.7-30,0.5c-0.2,10,0,20,0.5,30c8.3,9,16.7,18,25,27c0.5,19,0.7,38,0.5,57
		c34-0.2,68,0,102,0.5c8.6,3.1,12.3,9.2,11,18.5c3.8-0.3,7.5,0.2,11,1.5c3.9,4.3,3.9,8.6,0,13c-3.6,1.2-7.2,1.7-11,1.5
		c1,7.6-1.7,13.5-8,17.5c-65.3,0.7-130.7,0.7-196,0c-6.3-4.1-8.6-10-7-17.5c-7.8,1.8-12.8-1.1-15-8.5c0.8-2.1,1.8-4.1,3-6
		c3.9-1.4,7.9-1.9,12-1.5c-2-9.3,1.3-15.4,10-18.5c24-0.5,48-0.7,72-0.5c0.2-17,0-34-0.5-51c-8.7-8.4-17-17-25-26
		c-0.5-12.3-0.7-24.7-0.5-37c-24.1,0.5-48.1,0-72-1.5c-5.3-3.3-8.2-8.2-8.5-14.5c-0.9-10.7-0.6-21.4,1-32c4.7-4,9.3-4,14,0
		c0.2,10.6,0.7,21.1,1.5,31.5c35,0.5,70,0.7,105,0.5c0-46,0-92,0-138c-35-0.2-70,0-105,0.5c-0.8,28.1-1.3,56.3-1.5,84.5
		c-4.7,4-9.3,4-14,0c-0.3-1.3-0.7-2.7-1-4c-0.7-27-0.7-54,0-81C39,287.6,43.2,282.3,50.5,279.5z M78.5,579.5c0,7.3,0,14.7,0,22
		c59.7,0,119.3,0,179,0c0-7.3,0-14.7,0-22C197.8,579.5,138.2,579.5,78.5,579.5z"/>
</g>
<g>
	<path class="st10" d="M79.5,309.5c18-0.2,36,0,54,0.5c13.1,4.8,17.9,13.9,14.5,27.5c-7.4,10.4-14.4,21.1-21,32
		c-0.7,2.7-1.3,5.3-2,8c-0.3,10.7-0.7,21.3-1,32c-1.4,3.4-3.6,6.2-6.5,8.5c-14.6,1.6-29.3,1.9-44,1c-3.9-2.2-6.7-5.4-8.5-9.5
		c-0.7-28.3-0.7-56.7,0-85C67.4,317,72.2,312,79.5,309.5z M83.5,325.5c-1,0.8-1.8,1.8-2.5,3c-0.5,25.3-0.7,50.7-0.5,76
		c9.3,0,18.7,0,28,0c-0.2-9.3,0-18.7,0.5-28c0.9-8.3,3.5-16,8-23c5.7-7.5,11.2-15.2,16.5-23c-0.6-1.8-1.6-3.3-3-4.5
		C114.8,325.5,99.2,325.3,83.5,325.5z"/>
</g>
<g>
	<path class="st11" d="M340.5,334.5c4.3-0.2,8.7,0,13,0.5c4.3,3.4,5.1,7.6,2.5,12.5c-5.2,3.4-10.7,3.9-16.5,1.5
		c-2.9-2.9-3.7-6.4-2.5-10.5C337.7,336.6,338.9,335.3,340.5,334.5z"/>
</g>
<g>
	<path class="st12" d="M375.5,334.5c4.3-0.2,8.7,0,13,0.5c4.3,3.4,5.1,7.6,2.5,12.5c-5.2,3.3-10.7,3.8-16.5,1.5
		c-2.9-2.9-3.7-6.4-2.5-10.5C372.7,336.6,373.9,335.3,375.5,334.5z"/>
</g>
<g>
	<path class="st12" d="M410.5,334.5c4.3-0.2,8.7,0,13,0.5c4.1,3.5,4.9,7.7,2.5,12.5c-5.2,3.3-10.7,3.8-16.5,1.5
		C404.4,343.9,404.7,339.1,410.5,334.5z"/>
</g>
<g>
	<path class="st13" d="M360.5,371.5c4.3-0.2,8.7,0,13,0.5c5.3,4.7,5.3,9.3,0,14c-5.1,0.9-10.1,0.6-15-1
		C355.4,379.8,356.1,375.3,360.5,371.5z"/>
</g>
<g>
	<path class="st14" d="M390.5,371.5c4.3-0.2,8.7,0,13,0.5c5.3,4.7,5.3,9.3,0,14c-4.7,0.8-9.4,0.6-14-0.5
		C385.3,380.5,385.6,375.8,390.5,371.5z"/>
</g>
<g>
	<path class="st10" d="M305.5,429.5c7.5-1.5,11.5,1.5,12,9c3,0,6,0,9,0c0.5-8.6,4.9-11.1,13-7.5c1.3,2,2.3,4.2,3,6.5
		c2.6,1,5.3,1.3,8,1c0.5-7.7,4.5-10.5,12-8.5c3.3,1.9,4.7,4.7,4,8.5c18-2.6,25.7,5,23,23c5.6,0.1,9,3,10,8.5
		c-0.9,5.8-4.2,8.3-10,7.5c0,3,0,6,0,9c5.7-0.6,9.1,1.9,10,7.5c-0.4,6.2-3.7,9.1-10,8.5c0,3,0,6,0,9c5.8-0.8,9.1,1.7,10,7.5
		c-1,5.5-4.4,8.4-10,8.5c0.2,4.7,0,9.3-0.5,14c-2.1,5.1-5.9,8-11.5,8.5c-3.7,0.5-7.3,0.7-11,0.5c-0.5,7.6-4.5,10.5-12,8.5
		c-2.8-2.1-4.2-5-4-8.5c-2.7-0.3-5.4,0-8,1c-2.2,8.1-7.1,10.1-14.5,6c-1.2-2.2-1.7-4.5-1.5-7c-3,0-6,0-9,0c-0.5,7.7-4.5,10.5-12,8.5
		c-3.3-1.9-4.7-4.7-4-8.5c-17.7,2.3-25.4-5.4-23-23c-5.6-0.1-9-3-10-8.5c0.9-5.8,4.2-8.3,10-7.5c0-3,0-6,0-9c-6,0.6-9.3-2-10-8
		c0.7-6,4-8.6,10-8c0-3,0-6,0-9c-5.8,0.8-9.1-1.7-10-7.5c1-5.5,4.4-8.4,10-8.5c-0.8-6.8,0.3-13.1,3.5-19c6-3.4,12.5-4.8,19.5-4
		c-0.2-1.7,0-3.4,0.5-5C303.4,432.3,304.5,431,305.5,429.5z M294.5,454.5c0,26.7,0,53.3,0,80c26.3,0,52.7,0,79,0c0-26.7,0-53.3,0-80
		C347.2,454.5,320.8,454.5,294.5,454.5z"/>
</g>
<g>
	<path class="st15" d="M311.5,471.5c5.8-1.5,9.7,0.5,11.5,6c0.7,11.3,0.7,22.7,0,34c-1,4.2-3.7,6.2-8,6c-3.3,0.2-5.6-1.1-7-4
		c-0.7-12.7-0.7-25.3,0-38C308.7,473.6,309.9,472.3,311.5,471.5z"/>
</g>
<g>
	<path class="st15" d="M348.5,471.5c2.7-0.2,5.4,0,8,0.5c1.8,0.5,3,1.7,3.5,3.5c0.7,12.7,0.7,25.3,0,38c-1.4,2.9-3.7,4.2-7,4
		c-4.3,0.2-7-1.8-8-6c-0.7-11.3-0.7-22.7,0-34C345.6,475.1,346.7,473.1,348.5,471.5z"/>
</g>
<g>
	<path class="st16" d="M69.5,483.5c20.8,0,31,10.3,30.5,31c-6.4,19.1-19.2,25.3-38.5,18.5c-13.7-9.8-16.9-22.3-9.5-37.5
		C56.4,489.3,62.2,485.3,69.5,483.5z M71.5,499.5c-6.2,2.7-8.3,7.3-6.5,14c5.5,7.6,11.5,7.9,18,1C85.5,504.8,81.6,499.8,71.5,499.5z
		"/>
</g>
<g>
	<path class="st17" d="M202.5,483.5c16.5-1.3,26.7,6,30.5,22c0.2,21.8-10.7,31.7-32.5,29.5c-18.7-7.7-23.9-20.9-15.5-39.5
		C189.4,489.3,195.2,485.3,202.5,483.5z M204.5,499.5c-2.8,1.2-5,3.2-6.5,6c-1.9,6.1,0,10.6,5.5,13.5c6.9,1.8,11.4-0.7,13.5-7.5
		C217,503.3,212.8,499.3,204.5,499.5z"/>
</g>
<g>
	<path class="st16" d="M326.5,601.5c20.3-0.2,40.7,0,61,0.5c8.1,3.5,9.1,8.5,3,15c-22.3,0.7-44.7,0.7-67,0
		C317.6,610.5,318.6,605.3,326.5,601.5z"/>
</g>
</svg>
