<?xml version="1.0" encoding="utf-8"?>
<!-- Generator: Adobe Illustrator 19.0.0, SVG Export Plug-In . SVG Version: 6.00 Build 0)  -->
<svg version="1.1" id="Camada_1" xmlns="http://www.w3.org/2000/svg" xmlns:xlink="http://www.w3.org/1999/xlink" x="0px" y="0px"
	 viewBox="-137.3 203 298 402.7" style="enable-background:new -137.3 203 298 402.7;" xml:space="preserve">
<style type="text/css">
	.st0{fill:none;}
	.st1{opacity:0.956;fill:#FFFFFF;enable-background:new    ;}
	.st2{opacity:0.924;fill:#FFFFFF;enable-background:new    ;}
</style>
<path class="st0" d="M-86.9,135.3c9-0.4,11.7,3.4,8,11.5c-7.9,3.3-11.7,0.8-11.5-7.5C-89.7,137.4-88.5,136.1-86.9,135.3z"/>
<path class="st0" d="M183.1,135.3c9-0.4,11.7,3.4,8,11.5c-7.9,3.3-11.7,0.8-11.5-7.5C180.3,137.4,181.5,136.1,183.1,135.3z"/>
<path class="st1" d="M156.7,241.2c-3.7-18.6-14.7-30.2-32.9-34.8c-74.9,0-149.7,0-224.6,0c-18.2,4.7-29.2,16.3-32.9,34.8
	c-0.5,18.3-0.5,36.6,0,55c0.9,0.9,1.8,1.8,2.7,2.7c4,1.3,7.1,0.2,8.9-3.5c0.3-17.5,0.5-35.1,0.8-52.6c2.6-12.4,9.9-20.2,22-23.7
	c11.6-1,23.2-1.4,34.8-1.1c-0.1,29.9,0,59.9,0.4,89.8c0.9,0.9,1.8,1.8,2.7,2.7c48.5,0.5,97.1,0.5,145.6,0c0.7-0.7,1.3-1.3,1.9-1.9
	c1.1-30.1,1.5-60.4,1.1-90.6c9.5-0.1,19.1,0,28.7,0.4c15.5,1.2,24.9,9.3,28.2,24.4c0.5,108,0.5,215.8,0,323.8
	c-3.4,15.1-12.9,23.2-28.2,24.4c-69.7,0.5-139.4,0.5-209.1,0c-15.5-1.2-24.9-9.3-28.2-24.4c-0.3-84.2-0.5-168.3-0.8-252.5
	c-3.9-4.1-7.8-4.1-11.6,0c-0.5,84.7-0.5,169.4,0,254.1c3.7,18.6,14.7,30.2,32.9,34.8c74.9,0,149.7,0,224.6,0
	c18.2-4.7,29.2-16.3,32.9-34.8C157.1,459.1,157.1,350.2,156.7,241.2z M40.9,217.9c3.6,0,7.2,0,10.9,0c0,19.4,0,38.7,0,58.1
	c-3.6,0-7.2,0-10.9,0C40.9,256.8,40.9,237.4,40.9,217.9z M17.6,217.9c3.6,0,7.2,0,10.9,0c0,19.4,0,38.7,0,58.1c-3.6,0-7.2,0-10.9,0
	C17.6,256.8,17.6,237.4,17.6,217.9z M-5.7,217.9c3.6,0,7.2,0,10.9,0c0,19.4,0,38.7,0,58.1c-3.6,0-7.2,0-10.9,0
	C-5.7,256.8-5.7,237.4-5.7,217.9z M-28.8,217.9c3.6,0,7.2,0,10.9,0c0,19.4,0,38.7,0,58.1c-3.6,0-7.2,0-10.9,0
	C-28.8,256.8-28.8,237.4-28.8,217.9z M74.9,299.3c-42.3,0-84.7,0-127,0c0-27.1,0-54.3,0-81.4c3.6,0,7.2,0,10.9,0
	c-0.1,22.2,0,44.4,0.4,66.6c0.9,0.9,1.8,1.8,2.7,2.7c33.1,0.5,66.1,0.5,99.2,0c0.7-0.7,1.3-1.3,1.9-1.9c1.1-22.4,1.5-44.8,1.1-67.4
	c3.6,0,7.2,0,10.9,0C74.9,245.1,74.9,272.2,74.9,299.3z"/>
<path class="st0" d="M-86.5,546.7c8.6-0.4,11.2,3.2,7.6,11c-7.5,3.1-11.2,0.8-11-7.2C-89.2,548.8-88.1,547.5-86.5,546.7z"/>
<g>
	<path class="st2" d="M-95.5,239.5c17.3-1.2,24.6,6.7,21.8,23.7c-5.1,10-13.2,13.2-24.1,9.6c-8.8-5.2-11.7-12.7-8.8-22.6
		C-104.4,245-100.8,241.4-95.5,239.5z M-92.4,251.8c-1.2,0.6-2.1,1.6-2.7,3.1c-0.2,6.4,2.8,8.3,8.8,5.7
		C-83.5,254.4-85.5,251.5-92.4,251.8z"/>
</g>
<g>
	<path class="st2" d="M112.1,239.5c17.3-1.2,24.6,6.7,21.8,23.7c-5.1,10-13.2,13.2-24.1,9.6c-8.8-5.2-11.7-12.7-8.8-22.6
		C103.1,245,106.8,241.4,112.1,239.5z M115.1,251.8c-1.2,0.6-2.1,1.6-2.7,3.1c-0.2,6.4,2.8,8.3,8.8,5.7
		C124.1,254.4,122,251.5,115.1,251.8z"/>
</g>
<g>
	<path class="st2" d="M-95.5,535.5c17.3-1.2,24.6,6.7,21.8,23.7c-5.1,10-13.2,13.2-24.1,9.6c-8.8-5.2-11.7-12.7-8.8-22.6
		C-104.4,540.9-100.8,537.4-95.5,535.5z M-92.4,547.8c-1.2,0.6-2.1,1.7-2.7,3.1c-0.2,6.4,2.8,8.3,8.8,5.7
		C-83.5,550.4-85.5,547.5-92.4,547.8z"/>
</g>
<g>
	<path class="st2" d="M112.1,535.5c17.3-1.2,24.6,6.7,21.8,23.7c-5.1,10-13.2,13.2-24.1,9.6c-8.8-5.2-11.7-12.7-8.8-22.6
		C103.1,540.9,106.8,537.4,112.1,535.5z M115.1,547.8c-1.2,0.6-2.1,1.7-2.7,3.1c-0.2,6.4,2.8,8.3,8.8,5.7
		C124.1,550.4,122,547.5,115.1,547.8z"/>
</g>
</svg>
