<?xml version="1.0" encoding="utf-8"?>
<!-- Generator: Adobe Illustrator 19.0.0, SVG Export Plug-In . SVG Version: 6.00 Build 0)  -->
<svg version="1.1" id="Camada_1" xmlns="http://www.w3.org/2000/svg" xmlns:xlink="http://www.w3.org/1999/xlink" x="0px" y="0px"
	 viewBox="-481 132 37 37" style="enable-background:new -481 132 37 37;" xml:space="preserve">
<style type="text/css">
	.st0{fill:#E1F0FF;}
</style>
<path class="st0" d="M-462.5,145.6c-2.8,0-5.2,2.3-5.2,5.2s2.3,5.2,5.2,5.2c2.8,0,5.2-2.3,5.2-5.2S-459.6,145.6-462.5,145.6z
	 M-471.4,150.8c0-4.9,4-8.9,8.9-8.9c4.9,0,8.9,4,8.9,8.9s-4,8.9-8.9,8.9C-467.4,159.7-471.4,155.7-471.4,150.8z"/>
<path class="st0" d="M-470.2,136.5c-3.6,0-6.6,2.9-6.6,6.6v15.5c0,3.6,2.9,6.6,6.6,6.6h15.5c3.6,0,6.6-2.9,6.6-6.6V143
	c0-3.6-2.9-6.6-6.6-6.6H-470.2z M-480.5,143c0-5.7,4.6-10.3,10.3-10.3h15.5c5.7,0,10.3,4.6,10.3,10.3v15.5c0,5.7-4.6,10.3-10.3,10.3
	h-15.5c-5.7,0-10.3-4.6-10.3-10.3V143z"/>
<path class="st0" d="M-453.4,143.7c1.2,0,2.1-0.9,2.1-2.1c0-1.2-0.9-2.1-2.1-2.1c-1.2,0-2.1,0.9-2.1,2.1
	C-455.5,142.8-454.5,143.7-453.4,143.7z"/>
</svg>
