<?xml version="1.0" encoding="utf-8"?>
<!-- Generator: Adobe Illustrator 19.0.0, SVG Export Plug-In . SVG Version: 6.00 Build 0)  -->
<svg version="1.1" id="Camada_1" xmlns="http://www.w3.org/2000/svg" xmlns:xlink="http://www.w3.org/1999/xlink" x="0px" y="0px"
	 viewBox="-478.4 133 40.1 36" style="enable-background:new -478.4 133 40.1 36;" xml:space="preserve">
<style type="text/css">
	.st0{fill:#E1F0FF;}
</style>
<path class="st0" d="M-438.8,139.2c-0.3-0.7-1-1.2-1.7-1.2l-5.1,0c-1-2.1-2.8-3.6-4.7-4.3c-2-0.7-4.3-0.7-6.3,0.1
	c-1.6,0.6-3,1.7-4,3.2c-1.1,1.6-1.6,4.2-1.6,6.2c-1.8-0.5-3.4-1.3-5-2.1c-2.2-1.2-4-2.5-5.3-3.6c-0.6-0.5-1.2-1-1.5-1.3
	c-0.2-0.2-0.3-0.3-0.4-0.4c-0.7-0.6-1.2-0.8-2-0.6c-0.7,0.2-1.2,0.8-1.3,1.5c-1,5.5-0.3,9.9,1,13.3c1.4,3.5,3.5,5.9,5.2,7.4
	c0.5,0.4,0.9,0.8,1.3,1.1c-0.5,0.5-1.1,1-1.7,1.5c-1.2,0.9-2.3,1.6-3.2,2c-0.4,0.2-0.8,0.4-1.1,0.5l-0.4,0.2
	c-0.5,0.2-0.9,0.6-1.1,1.2c-0.2,0.4,0,1.5,0.2,1.6c0.1,0.1,0.1,0.2,0.2,0.3c0.1,0.1,0.2,0.3,0.4,0.4c0.3,0.3,0.8,0.7,1.5,1
	c1.4,0.7,3.4,1.3,6.5,1.3c3.2,0,6.3-0.6,9.1-1.8c2.8-1.1,5.3-2.7,7.5-4.8c2-1.9,3.7-4.2,5-6.6c1.4-2.7,2.3-5.8,2.6-8.9l5.2-5.2
	C-438.7,140.7-438.5,139.9-438.8,139.2z M-447.5,144.3c-0.3,0.3-0.5,0.8-0.5,1.2c-0.2,2.9-1,5.6-2.3,8.1c-1.1,2.1-2.5,4-4.2,5.6
	c-1.9,1.8-4,3.1-6.4,4.1c-2.4,1-5.1,1.5-7.7,1.5c-1.2,0-2.1-0.1-2.8-0.2c0.7-0.4,1.4-0.9,2.1-1.4c1.3-1,2.7-2.3,3.7-3.8
	c0.3-0.4,0.4-1,0.3-1.5c-0.1-0.5-0.5-1-1-1.2l0,0c0,0-0.1,0-0.1-0.1c-0.1-0.1-0.3-0.2-0.5-0.3c-0.4-0.3-1.1-0.7-1.8-1.4
	c-1.4-1.3-3.1-3.2-4.2-6c-0.8-2.1-1.4-4.7-1.2-7.9c1.4,1.1,3.2,2.4,5.4,3.5c4.5,2,6.4,2.8,8.3,3c0.5,0.1,1.1-0.1,1.5-0.4
	c0.4-0.4,0.7-0.9,0.7-1.4l0-2.8c0-0.6,0.1-1.2,0.3-1.7c0.2-0.6,0.5-1.1,0.9-1.5c0.4-0.5,0.8-0.9,1.3-1.2c0.5-0.3,1-0.5,1.6-0.6
	c0.7-0.1,1.4-0.1,2.1,0c0.5,0.1,0.9,0.3,1.3,0.5c0.5,0.3,1,0.6,1.4,1.1c0.4,0.4,0.7,0.9,0.9,1.4c0.3,0.7,1,1.1,1.7,1.1h1.7
	L-447.5,144.3z"/>
</svg>
