<?xml version="1.0" encoding="utf-8"?>
<!-- Generator: Adobe Illustrator 19.0.0, SVG Export Plug-In . SVG Version: 6.00 Build 0)  -->
<svg version="1.1" xmlns="http://www.w3.org/2000/svg" xmlns:xlink="http://www.w3.org/1999/xlink" x="0px" y="0px"
	 viewBox="-474.1 134.4 41.3 32.7" style="enable-background:new -474.1 134.4 41.3 32.7;" xml:space="preserve">
<style type="text/css">
	.st0{fill:#E1F0FF;}
</style>
<g id="Camada_1">
	<path class="st0" d="M-457.2,143.5c0.6-0.3,1.3-0.3,1.9,0.1l8.4,5.6c0.5,0.3,0.8,0.9,0.8,1.6c0,0.6-0.3,1.2-0.8,1.6l-8.4,5.6
		c-0.6,0.4-1.3,0.4-1.9,0.1c-0.6-0.3-1-1-1-1.7v-11.3C-458.2,144.4-457.8,143.8-457.2,143.5z M-454.4,148.6v4.2l3.2-2.1
		L-454.4,148.6z"/>
	<path class="st0" d="M-434.3,140.4c-0.2-0.7-0.5-1.4-1-1.9c-0.5-0.6-1.1-1-1.8-1.3l0,0c-3.2-1.2-7.3-1.8-10.5-2.1
		c-1.6-0.1-3.1-0.2-4.1-0.2c-0.5,0-0.9,0-1.2,0c-0.1,0-0.3,0-0.3,0l-0.1,0l0,0h0l0,0l-0.1,0c-0.1,0-0.2,0-0.3,0c-0.3,0-0.7,0-1.2,0
		c-1,0-2.5,0.1-4.1,0.2c-3.2,0.3-7.3,0.8-10.5,2.1l0,0c-0.7,0.3-1.3,0.7-1.8,1.3c-0.5,0.6-0.8,1.2-1,1.9c-0.5,1.8-1,5-1,10.3
		c0,5.4,0.6,8.6,1,10.3c0.2,0.7,0.5,1.4,1,1.9c0.5,0.6,1.1,1,1.8,1.3l0,0c3.2,1.2,7.3,1.8,10.5,2.1c1.6,0.1,3.1,0.2,4.1,0.2
		c0.5,0,0.9,0,1.2,0c0.1,0,0.3,0,0.3,0h0.1l0,0h0l0,0h0.1c0.1,0,0.2,0,0.3,0c0.3,0,0.7,0,1.2,0c1,0,2.5-0.1,4.1-0.2
		c3.2-0.3,7.3-0.8,10.5-2.1l0,0c0.7-0.3,1.3-0.7,1.8-1.3c0.5-0.6,0.8-1.2,1-1.9c0.5-1.8,1-5,1-10.3
		C-433.3,145.4-433.9,142.2-434.3,140.4z M-438,160.2L-438,160.2c0,0.2-0.1,0.3-0.2,0.4c-0.1,0.1-0.2,0.2-0.4,0.2
		c-2.7,1-6.4,1.6-9.5,1.8c-1.5,0.1-2.9,0.2-3.9,0.2c-0.5,0-0.9,0-1.1,0c-0.1,0-0.2,0-0.3,0h-0.1l0,0l0,0l0,0h0l0,0h-0.1
		c-0.1,0-0.2,0-0.3,0c-0.3,0-0.7,0-1.1,0c-1,0-2.3-0.1-3.9-0.2c-3.1-0.3-6.8-0.8-9.5-1.8c-0.1-0.1-0.3-0.1-0.4-0.2
		c-0.1-0.1-0.2-0.2-0.2-0.4l0,0c-0.4-1.4-0.9-4.3-0.9-9.4s0.5-8,0.9-9.4l0,0c0-0.1,0.1-0.3,0.2-0.4c0.1-0.1,0.2-0.2,0.4-0.2
		c2.7-1,6.4-1.6,9.5-1.8c1.5-0.1,2.9-0.2,3.9-0.2c0.5,0,0.9,0,1.1,0c0.1,0,0.2,0,0.3,0h0.1l0,0l0,0l0,0h0l0,0h0.1c0.1,0,0.2,0,0.3,0
		c0.3,0,0.7,0,1.1,0c1,0,2.3,0.1,3.9,0.2c3.1,0.3,6.8,0.8,9.5,1.8c0.1,0.1,0.3,0.1,0.4,0.2c0.1,0.1,0.2,0.2,0.2,0.4l0,0
		c0.4,1.4,0.9,4.3,0.9,9.4C-437.1,155.9-437.6,158.8-438,160.2z"/>
</g>
<g id="Camada_2">
</g>
<g id="Camada_3">
</g>
</svg>
