<?xml version="1.0" encoding="utf-8"?>
<!-- Generator: Adobe Illustrator 19.0.0, SVG Export Plug-In . SVG Version: 6.00 Build 0)  -->
<svg version="1.1" id="Camada_1" xmlns="http://www.w3.org/2000/svg" xmlns:xlink="http://www.w3.org/1999/xlink" x="0px" y="0px"
	 viewBox="-472.8 131.6 38.5 38.3" style="enable-background:new -472.8 131.6 38.5 38.3;" xml:space="preserve">
<style type="text/css">
	.st0{fill:#E1F0FF;}
</style>
<path class="st0" d="M-472.2,137.6c0-3.1,2.5-5.6,5.6-5.6h26.3c3.1,0,5.6,2.5,5.6,5.6v26.3c0,3.1-2.5,5.6-5.6,5.6h-26.3
	c-3.1,0-5.6-2.5-5.6-5.6V137.6z M-466.6,135.8c-1,0-1.9,0.8-1.9,1.9v26.3c0,1,0.8,1.9,1.9,1.9h26.3c1,0,1.9-0.8,1.9-1.9v-26.3
	c0-1-0.8-1.9-1.9-1.9H-466.6z"/>
<path class="st0" d="M-453.6,143.6c1.1-1.1,2.7-1.8,4.3-1.8h2.8c1,0,1.9,0.8,1.9,1.9c0,1-0.8,1.9-1.9,1.9h-2.8
	c-0.6,0-1.2,0.2-1.7,0.7c-0.4,0.4-0.7,1-0.7,1.7v17.7v2c0,1-0.8,1.9-1.9,1.9c-1,0-1.9-0.8-1.9-1.9v-2v-17.7
	C-455.4,146.3-454.7,144.8-453.6,143.6z"/>
<path class="st0" d="M-461,153.6c0-1,0.8-1.9,1.9-1.9h11.3c1,0,1.9,0.8,1.9,1.9c0,1-0.8,1.9-1.9,1.9h-11.3
	C-460.2,155.4-461,154.6-461,153.6z"/>
<path class="st0" d="M-451.6,165.6c-0.6,0.1-1.2,0.1-1.9,0.1c-0.6,0-1.3,0-1.9-0.1v2c0,1,0.8,1.9,1.9,1.9c1,0,1.9-0.8,1.9-1.9V165.6
	z"/>
</svg>
