<?xml version="1.0" encoding="utf-8"?>
<!-- Generator: Adobe Illustrator 19.0.0, SVG Export Plug-In . SVG Version: 6.00 Build 0)  -->
<svg version="1.1" xmlns="http://www.w3.org/2000/svg" xmlns:xlink="http://www.w3.org/1999/xlink" x="0px" y="0px"
	 viewBox="0 0 145.3 183" enable-background="new 0 0 145.3 183" xml:space="preserve">
<g id="Camada_1" display="none">
	
		<image display="inline" overflow="visible" width="100" height="100" xlink:href="../../../../Downloads/icons8-computer-mouse-100.png"  transform="matrix(1.8867 0 0 1.8867 -0.25 -15.6667)">
	</image>
</g>
<g id="Camada_2">
	<path d="M69.1,35.9c1.2-1.1,2.7-0.9,3-0.9c0.2,0,1.8-0.1,3,1c1.1,1,1.2,2.2,1.3,2.5v25c-1,1.7-2.7,2.8-4.3,2.5
		c-1.4-0.2-2.4-1.5-2.8-2c-0.6-0.8-0.9-1.5-1-2l-0.5-22C67.5,38.5,68,36.9,69.1,35.9z M140.2,60.7c-1-6.4-3.5-15.9-10-25.5
		c-5.9-8.8-12.5-13.8-16.8-17c-4.3-3.2-11-8.1-21-11.3C90.1,6.2,82,3.8,71.2,4.2c-19.9,0.6-34,10-37.3,12.3
		c-3.5,2.4-16.7,12.1-24.3,30.3c-2.4,5.8-3.6,10.9-4.3,14.8v55.3c0.4,6.9,2.1,16,7.3,25.3c4.5,8.1,9.9,13.2,14,17
		c3.1,2.9,7.2,6.7,13.5,10.3c1.6,0.9,7.5,4.1,16.3,6.3c6.4,1.6,20.7,4.9,37.5-0.5c13.4-4.3,21.7-11.9,25.8-15.8
		c4.8-4.6,16-15.4,19.5-32.5c0.7-3.6,0.9-6.3,1-8.3C140.7,108.9,141.3,90.9,140.2,60.7z M76.4,70.7c0.4,0,4,0.1,6.3-2.8
		c1.6-2.1,1.5-4.4,1.5-5V35.7c-0.3-0.9-0.9-2.6-2.5-4.3c-1.7-1.7-3.6-2.4-4.5-2.7c-0.1-5.6-0.2-11.2-0.3-16.8h3.8
		c4,0.9,9.2,2.4,15,5c2.7,1.2,7.2,3.3,12.3,7c2.2,1.6,8.9,6.7,15,15.8c3.6,5.3,8.5,12.6,9.5,22.5c0.1,0.9,0,0.9,0.3,8.5
		c0.2,7,0.4,12.7,0.5,16.5c-18.9,0-37.8,0-56.8,0V70.7z M69.1,35.9c1.2-1.1,2.7-0.9,3-0.9c0.2,0,1.8-0.1,3,1c1.1,1,1.2,2.2,1.3,2.5
		v25c-1,1.7-2.7,2.8-4.3,2.5c-1.4-0.2-2.4-1.5-2.8-2c-0.6-0.8-0.9-1.5-1-2l-0.5-22C67.5,38.5,68,36.9,69.1,35.9z M12.4,71.9
		c0-5.2,0.2-9.9,0.3-11.3c0.9-15.5,15.8-29.5,18.3-31.8c13.4-12.5,28.6-15.9,35.3-17l2.5,0.5c0,5.5,0,11,0,16.5
		c-1.1,0.1-3.3,0.5-5,2.3c-1.1,1.1-1.7,2.5-2,4.3c-0.8,4.1-0.9,13.9,0,26.8c0,0.6-0.1,3.2,1.8,5.5c2,2.4,4.7,2.8,5.3,2.8
		c0,5.6-0.1,11.1-0.1,16.7h-56C12.5,83.6,12.4,78.4,12.4,71.9z M133.2,115.9c-1.4,10-4.6,17.1-5.5,19c-5.7,12.1-14,19.6-18.8,23.3
		c-3.7,2.8-11.3,8.6-23,11.3c-2.8,0.6-14,3-27.8-0.8c-2.4-0.6-14.5-4.1-26-14.8c-12.9-12-17.6-26-19.3-32.5
		c-0.4-4.5-0.7-9.3-0.8-14.5c0-3.9,0.1-7.7,0.2-11.3c40.3,0,80.5,0,120.8,0v1.3C133.8,101.6,134.2,108.2,133.2,115.9z"/>
</g>
</svg>
