<?xml version="1.0" encoding="utf-8"?>
<!-- Generator: Adobe Illustrator 19.0.0, SVG Export Plug-In . SVG Version: 6.00 Build 0)  -->
<svg version="1.1" id="Camada_1" xmlns="http://www.w3.org/2000/svg" xmlns:xlink="http://www.w3.org/1999/xlink" x="0px" y="0px"
	 viewBox="279 -1 801 728.3" style="enable-background:new 279 -1 801 728.3;" xml:space="preserve">
<style type="text/css">
	.st0{fill:url(#SVGID_1_);}
	.st1{fill:url(#SVGID_2_);}
	.st2{fill:url(#SVGID_3_);}
	.st3{fill:url(#SVGID_4_);}
	.st4{fill:url(#SVGID_5_);}
	.st5{fill:url(#SVGID_6_);}
	.st6{fill:url(#SVGID_7_);}
</style>
<g id="Camada_3">
</g>
<g id="Camada_2">
	<g>
		
			<linearGradient id="SVGID_1_" gradientUnits="userSpaceOnUse" x1="512.7556" y1="524.0789" x2="865.5559" y2="524.0789" gradientTransform="matrix(1 0 0 -1 0 792)">
			<stop  offset="0" style="stop-color:#1F7EB2"/>
			<stop  offset="0.5153" style="stop-color:#004794"/>
			<stop  offset="1" style="stop-color:#1F7EB2"/>
		</linearGradient>
		<path class="st0" d="M858.2,117.6c-8.7-9.4-20.4-9.3-22.2-9.3H540.8c-2.7,0.1-10.2,0.7-17.1,6.2c-9.6,7.6-10.7,18.7-10.9,20.7
			c0.1,130.4,0.1,183.6,0,187.3c0,0.2-0.1,2.1,0,4.5c0.1,2.5,0.1,5,0.5,7.4c0.3,2.1,1.1,5.2,2.9,8.8c1.6,2.4,4.5,5.9,9.1,8.8
			c8,5,16.1,4.7,19.1,4.5h112.1c-2.4,17.8-4.9,35.5-7.3,53.3c-9.8,0-19.5,0-29.3,0c-0.9-0.1-3.4-0.2-5.5,1.5
			c-3.4,2.6-2.8,7.5-2.7,8.7c0.2,1.5,0.5,4.2,2.8,6c2.2,1.7,4.8,1.5,5.5,1.5h138.2c0.9,0.1,2.6,0.1,4.5-0.9c2.7-1.4,4.3-4.3,4.3-7.2
			c0.1-3.4-2-5.6-2.6-6.2c-1.6-1.7-3.4-2.3-4.3-2.6c-9.8-0.1-19.5-0.2-29.3-0.3c-3-17.8-5.9-35.6-8.9-53.4l113.1-0.1
			c1.6,0.2,13.6,1.2,22.6-7.9c7.3-7.4,7.9-16.5,7.9-18.6V136.2C865.8,133.8,865.1,125,858.2,117.6z M850.8,138.3v160.2H529.1V133
			c0.1-0.9,0.4-4.3,3.3-7.1c3.8-3.6,8.7-2.9,9.3-2.8h297.7c0.9,0.2,5.9,1.1,9.1,5.9C851.2,133,850.9,137.2,850.8,138.3z"/>
		<g>
			
				<linearGradient id="SVGID_2_" gradientUnits="userSpaceOnUse" x1="682.3231" y1="602.4014" x2="696.8231" y2="602.4014" gradientTransform="matrix(1 0 0 -1 0 792)">
				<stop  offset="0" style="stop-color:#1F7EB2"/>
				<stop  offset="0.5153" style="stop-color:#004794"/>
				<stop  offset="1" style="stop-color:#1F7EB2"/>
			</linearGradient>
			<path class="st1" d="M696.8,167.5c-0.7-3.4-3.7-5.9-7.1-6c-3.5-0.1-6.7,2.5-7.4,6V211c0.3,3.7,3.5,6.7,7.2,6.7
				c3.8,0,6.9-2.9,7.2-6.7L696.8,167.5L696.8,167.5z"/>
			
				<linearGradient id="SVGID_3_" gradientUnits="userSpaceOnUse" x1="640.0773" y1="570.865" x2="739.6483" y2="570.865" gradientTransform="matrix(1 0 0 -1 0 792)">
				<stop  offset="0" style="stop-color:#1F7EB2"/>
				<stop  offset="0.5153" style="stop-color:#004794"/>
				<stop  offset="1" style="stop-color:#1F7EB2"/>
			</linearGradient>
			<path class="st2" d="M691.4,253.4c-3-0.1-15.6-0.4-25.9-10.6c-2.1-2.1-11.2-11.6-10.8-26c0.6-19.5,18-29.6,19-30.2
				c1.9-2.6,2.5-5.9,1.3-8.3c-1.8-3.5-7.5-5.1-12.4-2.1c-3.6,2.3-9.1,6.6-13.8,13.5c-6.7,9.7-8.2,19.5-8.6,24.7
				c-0.3,4.6-1,21.5,11.3,35.9c1.4,1.7,9,10.3,22.3,14.8c6,2,21,5.8,37.1-1.5c3.8-1.7,16.8-8.2,24.1-23.6
				c8.9-18.7,2.5-36.3,1.3-39.3c-1.5-3.5-3.7-8.1-7.4-12.9c-4.2-5.6-8.8-9.4-12.2-11.8c-3.1-2.4-7.5-2.1-10.2,0.7
				c-2.7,2.7-3,7.1-0.6,10.2c3,1.8,9.3,6,13.7,14c3.8,6.9,4.5,13.1,4.6,15.2c0.7,10.4-3.5,18.4-5.7,22c-1.9,2.9-7.1,11.1-17.2,14.3
				C697.1,253.5,693.8,253.4,691.4,253.4z"/>
		</g>
		<g>
			
				<linearGradient id="SVGID_4_" gradientUnits="userSpaceOnUse" x1="659.9985" y1="705.181" x2="718.8508" y2="705.181" gradientTransform="matrix(1 0 0 -1 0 792)">
				<stop  offset="0" style="stop-color:#1F7EB2"/>
				<stop  offset="0.5153" style="stop-color:#004794"/>
				<stop  offset="1" style="stop-color:#1F7EB2"/>
			</linearGradient>
			<path class="st3" d="M690.4,76.5c-3.4-0.1-7.5,0.1-12,0.8c-4.2,0.6-7.9,1.6-10.9,2.6c-4.3,0.9-7.4,4.5-7.5,8.4
				c-0.1,5,4.8,8.3,8.4,8.8c2.1,0.3,3-0.5,7.7-2.1c2.7-1.1,6-2,9.8-2.5c10.9-1.4,19.8,1.9,24.2,4c3.5,0.1,6.7-1.9,8.1-5.1
				c1.4-3.4,0.5-7.4-2.3-9.8c-3.3-1.3-7.5-2.7-12.4-3.7C698.5,76.9,694,76.6,690.4,76.5z"/>
			
				<linearGradient id="SVGID_5_" gradientUnits="userSpaceOnUse" x1="640.8883" y1="737.5569" x2="739.1173" y2="737.5569" gradientTransform="matrix(1 0 0 -1 0 792)">
				<stop  offset="0" style="stop-color:#1F7EB2"/>
				<stop  offset="0.5153" style="stop-color:#004794"/>
				<stop  offset="1" style="stop-color:#1F7EB2"/>
			</linearGradient>
			<path class="st4" d="M689.4,41.4c-10.9,0.3-19.1,2.4-23.8,3.6c-8.5,2.2-15.5,5.1-20.7,7.5c-0.7,0.4-2.2,1.5-3.2,3.4
				c-1.5,3.1-0.5,6.1-0.3,6.7c0.4,1,1.6,3.4,4.1,4.4c2.1,0.8,4.2,0.6,6-0.4c3.1-1.8,7.1-3.9,12.2-5.9c2.9-1.1,8-3.1,14.3-4.3
				c11.2-2.1,20.3-0.6,24.8,0.2c10.8,1.9,19.2,5.8,24.8,9c0.3,0.2,3.5,2.2,6.7,0.9c2.5-1,3.4-3.4,3.9-4.5c0.2-0.5,1.9-4.8-0.3-7.8
				c-0.7-1-1.4-1.3-5.3-3.1c-4.2-2-4.9-2.4-5.8-2.8c0,0-0.2-0.1-0.5-0.2C709.8,40.9,689.4,41.4,689.4,41.4z"/>
			
				<linearGradient id="SVGID_6_" gradientUnits="userSpaceOnUse" x1="621.475" y1="769.4243" x2="759.3339" y2="769.4243" gradientTransform="matrix(1 0 0 -1 0 792)">
				<stop  offset="0" style="stop-color:#1F7EB2"/>
				<stop  offset="0.5153" style="stop-color:#004794"/>
				<stop  offset="1" style="stop-color:#1F7EB2"/>
			</linearGradient>
			<path class="st5" d="M689.3,5.7c-8.1,0.1-14.5,1.1-17.9,1.6c-2,0.3-9.6,1.5-19.6,4.4c-10.2,2.9-15.8,5.6-18.9,7.1
				c-8.6,4.4-10.5,7.1-11.2,9.6c0,0.1,0,0.1,0,0.1c-0.6,2.6,0,5.8,1.8,8c3.2,3.8,8.7,2.9,9.3,2.8c2.5-0.4,3.4-1.4,7.5-4.2
				c0,0,2.9-1.7,8.8-4.6c3.1-1.5,8.1-3.7,14.3-5.4c1.5-0.4,7.2-2,15-2.8c6.1-0.6,10.5-0.5,16.7-0.3c4.9,0.2,8.2,0.3,12.7,0.9
				c5.8,0.9,10,2.2,12.8,3c9.4,2.9,16.1,6.4,20.2,8.5c2.4,1.3,4.4,2.4,5.7,3.2c0.5,0.3,3.7,2.2,7.3,0.9c2.4-0.9,3.6-2.6,4-3.1
				c1-1.5,2-4.4,1.3-7c-0.6-1.9-2.2-3-5.3-5.3c-3.3-2.3-5.9-3.5-5.9-3.5c-4.2-2.4-9.4-5-15.6-7.2c-5.3-1.9-10.3-3.2-14.6-4
				C706.3,6.1,696.5,5.6,689.3,5.7z"/>
		</g>
	</g>
	
		<linearGradient id="SVGID_7_" gradientUnits="userSpaceOnUse" x1="285" y1="151.95" x2="1074.2" y2="151.95" gradientTransform="matrix(1 0 0 -1 0 792)">
		<stop  offset="0" style="stop-color:#1F7EB2"/>
		<stop  offset="0.5153" style="stop-color:#004794"/>
		<stop  offset="1" style="stop-color:#1F7EB2"/>
	</linearGradient>
	<path class="st6" d="M356.3,581h-23.9v145.1h-23.7V581H285v-24.4h71.3V581z M453.1,725.8h-71.3V556.3h71.3v24.4h-47.6v36.1h41V641
		h-41v60.7h47.6V725.8z M550.9,692.4c0,9.2-3.4,17.4-10.1,24.4s-15.2,10.5-25.3,10.5c-10.5,0-19-3.3-25.6-10S480,701.8,480,691
		v-99.4c0-10.5,3.4-19.4,10.1-26.7s15.2-10.9,25.3-10.9c11.3,0,20.1,3.7,26.5,11c5.9,6.9,8.9,15.7,8.9,26.5v11h-23.5v-11
		c0-3.5-1.2-6.6-3.5-9.2c-2.3-2.6-5.2-3.9-8.4-3.9c-3.1,0-5.8,1.4-8.1,4.1c-2.3,2.7-3.4,5.7-3.4,9.1V691c0,3.5,1.1,6.4,3.4,8.7
		s5,3.5,8.1,3.5c3.4,0,6.3-1.2,8.6-3.5c2.3-2.3,3.4-5.2,3.4-8.7v-12h23.5V692.4z M649.2,725.8h-23.7V641h-23.7v84.9h-23.9V556.3
		h23.9v60.5h23.7v-60.5h23.7V725.8z M803.5,691.4c0,8.8-3.8,16.8-11.4,24c-7.6,7.3-15.8,10.9-24.5,10.9c-10.6,0-19.2-3.3-25.7-10
		s-9.7-15.5-9.7-26.3v-12h23.9v12c0,3.5,1.1,6.4,3.3,8.6c2.2,2.2,4.9,3.3,8.2,3.3s6.1-1.2,8.4-3.5c2.3-2.3,3.5-5.1,3.5-8.5v-38.7
		c0-3.2-1.2-6-3.6-8.4c-2.4-2.4-5.2-3.6-8.3-3.6c-10.3,0-18.8-3.7-25.4-11.1c-6.6-7.4-10-16.4-10-26.9v-12c0-10.5,3.3-19.2,10-26.1
		c6.6-6.9,15.1-10.3,25.4-10.3c9.2,0,17.5,3.5,24.9,10.6c7.3,7.1,11,15.3,11,24.5V601h-23.9v-12c0-3.3-1.2-6.2-3.5-8.5
		s-5.2-3.5-8.4-3.5c-3.3,0-6,1.2-8.2,3.5s-3.3,5.1-3.3,8.5v14c0,3.3,1.1,6.2,3.3,8.5s4.9,3.5,8.2,3.5c9.4,0,17.7,3.6,25,10.8
		s10.9,15.5,10.9,24.9v40.7H803.5z M899.2,581h-23.9v145.1h-23.7V581h-23.7v-24.4h71.3L899.2,581L899.2,581z M975.7,725.8h-23.9
		l-3.8-36.1h-19l-3.5,36.1h-24.2l25.3-169.5h23.9L975.7,725.8z M945.6,665.3c-1.7-20.9-4.1-43.5-7-67.9c-1.4,3-3.8,25.7-7,67.9
		H945.6z M1074.2,726.1h-24.4l-13.4-60.5h-11.3v60.5h-23.7V556.6h36.4c9.4,0,17.5,3.5,24.5,10.6s10.4,15.4,10.4,25v38
		c0,11-4.6,20.2-13.8,27.7L1074.2,726.1z M1048.8,629.3v-36.6c0-3.5-1.1-6.4-3.4-8.6c-2.3-2.2-5.1-3.3-8.6-3.3h-11.7v60.5h11.7
		c3.3,0,6.1-1.2,8.4-3.5C1047.7,635.4,1048.8,632.6,1048.8,629.3z"/>
</g>
</svg>
