<?xml version="1.0" encoding="utf-8"?>
<!-- Generator: Adobe Illustrator 19.0.0, SVG Export Plug-In . SVG Version: 6.00 Build 0)  -->
<svg version="1.1" id="Camada_1" xmlns="http://www.w3.org/2000/svg" xmlns:xlink="http://www.w3.org/1999/xlink" x="0px" y="0px"
	 viewBox="0 0 805.8 300" enable-background="new 0 0 805.8 300" xml:space="preserve">
<linearGradient id="XMLID_58_" gradientUnits="userSpaceOnUse" x1="300.1965" y1="150.7897" x2="802.0056" y2="150.7897">
	<stop  offset="0" style="stop-color:#1F7EB1"/>
	<stop  offset="0.5153" style="stop-color:#1A4895"/>
	<stop  offset="1" style="stop-color:#1F7EB1"/>
</linearGradient>
<path id="XMLID_13_" fill="url(#XMLID_58_)" d="M350.3,110h-16.8v100h-16.6V110h-16.6V93.2h50.1V110z M411.8,209.9h-50.1V93h50.1
	v16.8h-33.5v24.9h28.8v16.6h-28.8v41.9h33.5V209.9z M473.9,186.8c0,6.4-2.4,12-7.1,16.8c-4.7,4.8-10.7,7.3-17.8,7.3
	c-7.4,0-13.3-2.3-18-6.9c-4.6-4.6-6.9-10.7-6.9-18.1v-68.6c0-7.3,2.4-13.4,7.1-18.4c4.7-5,10.7-7.5,17.8-7.5
	c7.9,0,14.1,2.5,18.6,7.6c4.2,4.7,6.3,10.8,6.3,18.3v7.6h-16.5v-7.6c0-2.4-0.8-4.5-2.5-6.3c-1.6-1.8-3.6-2.7-5.9-2.7
	c-2.2,0-4.1,0.9-5.7,2.8c-1.6,1.9-2.4,4-2.4,6.3v68.6c0,2.4,0.8,4.4,2.4,6c1.6,1.6,3.5,2.4,5.7,2.4c2.4,0,4.4-0.8,6-2.4
	c1.6-1.6,2.4-3.6,2.4-6v-8.2h16.5V186.8z M536.4,209.9h-16.6v-58.5h-16.6v58.5h-16.8V93h16.8v41.7h16.6V93h16.6V209.9z M631.6,186.1
	c0,6-2.7,11.6-8,16.6c-5.3,5-11.1,7.5-17.2,7.5c-7.5,0-13.5-2.3-18-6.9c-4.6-4.6-6.8-10.7-6.8-18.1v-8.2h16.8v8.2
	c0,2.4,0.8,4.4,2.3,5.9c1.5,1.5,3.5,2.3,5.8,2.3c2.3,0,4.3-0.8,5.9-2.4c1.6-1.6,2.5-3.5,2.5-5.9v-26.7c0-2.2-0.9-4.1-2.6-5.8
	c-1.7-1.6-3.7-2.5-5.8-2.5c-7.3,0-13.2-2.6-17.9-7.7c-4.7-5.1-7-11.3-7-18.5v-8.2c0-7.3,2.3-13.2,7-18c4.7-4.7,10.6-7.1,17.9-7.1
	c6.5,0,12.3,2.4,17.5,7.3c5.2,4.9,7.7,10.5,7.7,16.9v9.1h-16.8v-8.2c0-2.3-0.8-4.3-2.5-5.9c-1.6-1.6-3.6-2.4-5.9-2.4
	c-2.3,0-4.2,0.8-5.8,2.4c-1.5,1.6-2.3,3.5-2.3,5.9v9.4c0,2.3,0.8,4.3,2.3,5.9c1.5,1.6,3.5,2.4,5.8,2.4c6.6,0,12.4,2.5,17.6,7.4
	c5.1,4.9,7.7,10.7,7.7,17.1V186.1z M692.2,110h-16.8v100h-16.6V110h-16.6V93.2h50.1V110z M739.4,209.9h-16.8l-2.6-24.9h-13.3
	l-2.5,24.9h-17L704.9,93h16.8L739.4,209.9z M718.3,168.2c-1.2-14.4-2.9-30-4.9-46.8c-1,2.1-2.6,17.7-4.9,46.8H718.3z M802,210h-17.1
	l-9.4-41.7h-7.9V210h-16.6V93.2h25.5c6.6,0,12.3,2.4,17.2,7.3c4.9,4.9,7.3,10.6,7.3,17.2V144c0,7.6-3.2,14-9.7,19.1L802,210z
	 M784.2,143.3v-25.2c0-2.4-0.8-4.4-2.4-5.9c-1.6-1.5-3.6-2.3-6-2.3h-8.2v41.7h8.2c2.3,0,4.3-0.8,5.9-2.4
	C783.4,147.5,784.2,145.6,784.2,143.3z"/>
<g id="XMLID_1_">
	
		<linearGradient id="XMLID_59_" gradientUnits="userSpaceOnUse" x1="4.0886" y1="-598.5624" x2="247.7055" y2="-598.5624" gradientTransform="matrix(1 0 0 1 0 784)">
		<stop  offset="0" style="stop-color:#1F7EB1"/>
		<stop  offset="0.5153" style="stop-color:#1A4895"/>
		<stop  offset="1" style="stop-color:#1F7EB1"/>
	</linearGradient>
	<path id="XMLID_38_" fill="url(#XMLID_59_)" d="M242.7,81.7c-6-6.5-14.1-6.4-15.4-6.4H23.5c-1.9,0.1-7,0.5-11.8,4.3
		C5,84.8,4.3,92.5,4.1,93.8c0.1,90.1,0.1,126.8,0,129.4c0,0.2-0.1,1.4,0,3.1c0.1,1.7,0.1,3.5,0.3,5.1c0.2,1.4,0.8,3.6,2,6.1
		c1.1,1.7,3.1,4.1,6.3,6.1c5.5,3.5,11.1,3.2,13.2,3.1h77.5c-1.7,12.3-3.4,24.5-5.1,36.8c-6.8,0-13.5,0-20.2,0
		c-0.6-0.1-2.4-0.2-3.8,1c-2.4,1.8-1.9,5.2-1.9,6c0.2,1,0.3,2.9,1.9,4.1c1.5,1.2,3.3,1,3.8,1h95.5c0.6,0.1,1.8,0.1,3.1-0.6
		c1.9-1,3-3,3-5c0.1-2.4-1.4-3.9-1.8-4.3c-1.1-1.2-2.4-1.6-3-1.8c-6.8-0.1-13.5-0.2-20.2-0.2c-2.1-12.3-4.1-24.6-6.2-36.9l78.1-0.1
		c1.1,0.2,9.4,0.8,15.6-5.4c5.1-5.1,5.4-11.4,5.4-12.8v-134C247.9,92.9,247.4,86.8,242.7,81.7z M237.6,96v110.7H15.4V92.3
		c0.1-0.6,0.3-3,2.3-4.9c2.6-2.5,6-2,6.4-1.9h205.6c0.6,0.2,4.1,0.8,6.3,4.1C237.9,92.3,237.6,95.2,237.6,96z"/>
	<g id="XMLID_35_">
		
			<linearGradient id="XMLID_60_" gradientUnits="userSpaceOnUse" x1="121.2019" y1="-652.6065" x2="131.2161" y2="-652.6065" gradientTransform="matrix(1 0 0 1 0 784)">
			<stop  offset="0" style="stop-color:#1F7EB1"/>
			<stop  offset="0.5153" style="stop-color:#1A4895"/>
			<stop  offset="1" style="stop-color:#1F7EB1"/>
		</linearGradient>
		<path id="XMLID_5_" fill="url(#XMLID_60_)" d="M131.2,116.1c-0.5-2.4-2.5-4.1-4.9-4.1c-2.4-0.1-4.6,1.7-5.1,4.1v30
			c0.2,2.5,2.4,4.6,5,4.6c2.6,0,4.8-2,5-4.6v-30H131.2z"/>
		
			<linearGradient id="XMLID_61_" gradientUnits="userSpaceOnUse" x1="92.0032" y1="-630.7646" x2="160.7823" y2="-630.7646" gradientTransform="matrix(1 0 0 1 0 784)">
			<stop  offset="0" style="stop-color:#1F7EB1"/>
			<stop  offset="0.5153" style="stop-color:#1A4895"/>
			<stop  offset="1" style="stop-color:#1F7EB1"/>
		</linearGradient>
		<path id="XMLID_4_" fill="url(#XMLID_61_)" d="M127.5,175.4c-2.1-0.1-10.8-0.3-17.9-7.3c-1.4-1.4-7.8-8-7.5-17.9
			c0.4-13.5,12.4-20.5,13.1-20.9c1.3-1.8,1.7-4.1,0.9-5.7c-1.3-2.4-5.2-3.5-8.6-1.4c-2.5,1.6-6.3,4.6-9.5,9.3
			c-4.6,6.7-5.6,13.5-5.9,17.1c-0.2,3.2-0.7,14.9,7.8,24.8c1,1.2,6.2,7.1,15.4,10.2c4.1,1.4,14.5,4,25.6-1
			c2.6-1.2,11.6-5.7,16.6-16.3c6.2-12.9,1.7-25.1,0.9-27.1c-1-2.4-2.5-5.6-5.1-8.9c-2.9-3.9-6.1-6.5-8.4-8.1c-2.1-1.7-5.2-1.4-7,0.5
			c-1.9,1.9-2.1,4.9-0.4,7c2.1,1.3,6.4,4.1,9.5,9.7c2.6,4.8,3.1,9,3.2,10.5c0.5,7.2-2.4,12.7-4,15.2c-1.3,2-4.9,7.6-11.9,9.8
			C131.4,175.6,129.1,175.4,127.5,175.4z"/>
	</g>
	<g id="XMLID_2_">
		
			<linearGradient id="XMLID_62_" gradientUnits="userSpaceOnUse" x1="105.7948" y1="-723.5956" x2="146.4739" y2="-723.5956" gradientTransform="matrix(1 0 0 1 0 784)">
			<stop  offset="0" style="stop-color:#1F7EB1"/>
			<stop  offset="0.5153" style="stop-color:#1A4895"/>
			<stop  offset="1" style="stop-color:#1F7EB1"/>
		</linearGradient>
		<path id="XMLID_3_" fill="url(#XMLID_62_)" d="M126.8,53.3c-2.4-0.1-5.2,0.1-8.3,0.6c-2.9,0.4-5.4,1.1-7.5,1.8
			c-3,0.6-5.1,3.1-5.2,5.8c-0.1,3.5,3.3,5.7,5.8,6.1c1.4,0.2,2.1-0.3,5.3-1.4c1.9-0.8,4.1-1.4,6.8-1.7c7.5-1,13.7,1.3,16.7,2.8
			c2.4,0.1,4.6-1.3,5.6-3.5c1-2.4,0.3-5.1-1.6-6.8c-2.3-0.9-5.2-1.9-8.6-2.5C132.4,53.6,129.3,53.3,126.8,53.3z"/>
		
			<linearGradient id="XMLID_63_" gradientUnits="userSpaceOnUse" x1="92.5792" y1="-745.9733" x2="160.4191" y2="-745.9733" gradientTransform="matrix(1 0 0 1 0 784)">
			<stop  offset="0" style="stop-color:#1F7EB1"/>
			<stop  offset="0.5153" style="stop-color:#1A4895"/>
			<stop  offset="1" style="stop-color:#1F7EB1"/>
		</linearGradient>
		<path id="XMLID_12_" fill="url(#XMLID_63_)" d="M126.1,29c-7.5,0.2-13.2,1.7-16.5,2.5c-5.9,1.5-10.7,3.5-14.3,5.2
			c-0.5,0.3-1.5,1-2.2,2.4c-1,2.1-0.3,4.2-0.2,4.6c0.3,0.7,1.1,2.4,2.8,3c1.4,0.6,2.9,0.4,4.1-0.3c2.1-1.3,4.9-2.7,8.4-4.1
			c2-0.8,5.5-2.1,9.8-3c7.8-1.4,14-0.4,17.1,0.2c7.5,1.3,13.3,4,17.1,6.2c0.2,0.2,2.4,1.5,4.6,0.6c1.7-0.7,2.4-2.4,2.7-3.1
			c0.2-0.3,1.3-3.3-0.2-5.4c-0.5-0.7-1-0.9-3.7-2.1c-2.9-1.4-3.4-1.7-4-1.9c0,0-0.2-0.1-0.3-0.2C140.2,28.7,126.1,29,126.1,29z"/>
		
			<linearGradient id="XMLID_64_" gradientUnits="userSpaceOnUse" x1="79.1635" y1="-768.0181" x2="174.4162" y2="-768.0181" gradientTransform="matrix(1 0 0 1 0 784)">
			<stop  offset="0" style="stop-color:#1F7EB1"/>
			<stop  offset="0.5153" style="stop-color:#1A4895"/>
			<stop  offset="1" style="stop-color:#1F7EB1"/>
		</linearGradient>
		<path id="XMLID_11_" fill="url(#XMLID_64_)" d="M126,4.4c-5.6,0.1-10,0.8-12.4,1.1c-1.4,0.2-6.6,1-13.5,3c-7,2-10.9,3.9-13,4.9
			c-5.9,3-7.3,4.9-7.8,6.6c0,0.1,0,0.1,0,0.1c-0.4,1.8,0,4,1.3,5.5c2.2,2.6,6,2,6.4,1.9c1.7-0.3,2.4-1,5.2-2.9c0,0,2-1.2,6.1-3.2
			c2.1-1,5.6-2.5,9.8-3.7c1-0.3,5-1.4,10.3-1.9c4.2-0.4,7.3-0.3,11.6-0.2c3.4,0.2,5.7,0.2,8.7,0.6c4,0.6,6.9,1.5,8.9,2.1
			c6.5,2,11.1,4.4,14,5.9c1.7,0.9,3,1.7,4,2.2c0.3,0.2,2.5,1.5,5.1,0.6c1.7-0.6,2.5-1.8,2.8-2.1c0.7-1,1.4-3,0.9-4.8
			c-0.4-1.3-1.5-2.1-3.7-3.7c-2.3-1.6-4.1-2.4-4.1-2.4c-2.9-1.7-6.5-3.5-10.8-5c-3.7-1.3-7.1-2.2-10.1-2.8
			C137.8,4.6,131,4.3,126,4.4z"/>
	</g>
</g>
</svg>
